<mxfile host="app.diagrams.net" modified="2024-03-31T12:48:07.914Z" agent="Mozilla/5.0 (Windows NT 10.0; Win64; x64) AppleWebKit/537.36 (KHTML, like Gecko) Chrome/123.0.0.0 Safari/537.36" etag="UbqkxiO_fMHKYPZto8nN" version="24.0.7" type="device">
  <diagram id="R2lEEEUBdFMjLlhIrx00" name="Page-1">
    <mxGraphModel dx="1481" dy="779" grid="0" gridSize="10" guides="1" tooltips="1" connect="1" arrows="1" fold="1" page="1" pageScale="1" pageWidth="850" pageHeight="1100" background="none" math="0" shadow="0" extFonts="Permanent Marker^https://fonts.googleapis.com/css?family=Permanent+Marker">
      <root>
        <mxCell id="0" />
        <mxCell id="1" parent="0" />
        <mxCell id="C-vyLk0tnHw3VtMMgP7b-23" value="User" style="shape=table;startSize=30;container=1;collapsible=1;childLayout=tableLayout;fixedRows=1;rowLines=0;fontStyle=1;align=center;resizeLast=1;labelBackgroundColor=none;swimlaneLine=1;" parent="1" vertex="1">
          <mxGeometry x="105" y="53" width="180" height="218" as="geometry" />
        </mxCell>
        <mxCell id="C-vyLk0tnHw3VtMMgP7b-24" value="" style="shape=partialRectangle;collapsible=0;dropTarget=0;pointerEvents=0;fillColor=none;points=[[0,0.5],[1,0.5]];portConstraint=eastwest;top=0;left=0;right=0;bottom=1;labelBackgroundColor=none;" parent="C-vyLk0tnHw3VtMMgP7b-23" vertex="1">
          <mxGeometry y="30" width="180" height="30" as="geometry" />
        </mxCell>
        <mxCell id="C-vyLk0tnHw3VtMMgP7b-25" value="PK" style="shape=partialRectangle;overflow=hidden;connectable=0;fillColor=none;top=0;left=0;bottom=0;right=0;fontStyle=1;labelBackgroundColor=none;" parent="C-vyLk0tnHw3VtMMgP7b-24" vertex="1">
          <mxGeometry width="30" height="30" as="geometry">
            <mxRectangle width="30" height="30" as="alternateBounds" />
          </mxGeometry>
        </mxCell>
        <mxCell id="C-vyLk0tnHw3VtMMgP7b-26" value="user_id" style="shape=partialRectangle;overflow=hidden;connectable=0;fillColor=none;top=0;left=0;bottom=0;right=0;align=left;spacingLeft=6;fontStyle=5;labelBackgroundColor=none;" parent="C-vyLk0tnHw3VtMMgP7b-24" vertex="1">
          <mxGeometry x="30" width="69.75" height="30" as="geometry">
            <mxRectangle width="69.75" height="30" as="alternateBounds" />
          </mxGeometry>
        </mxCell>
        <mxCell id="fgyODpVmvb1E_QNug-0B-1" value="int" style="shape=partialRectangle;overflow=hidden;connectable=0;fillColor=none;top=0;left=0;bottom=0;right=0;align=left;spacingLeft=6;fontStyle=5;labelBackgroundColor=none;" vertex="1" parent="C-vyLk0tnHw3VtMMgP7b-24">
          <mxGeometry x="99.75" width="80.25" height="30" as="geometry">
            <mxRectangle width="80.25" height="30" as="alternateBounds" />
          </mxGeometry>
        </mxCell>
        <mxCell id="C-vyLk0tnHw3VtMMgP7b-27" value="" style="shape=partialRectangle;collapsible=0;dropTarget=0;pointerEvents=0;fillColor=none;points=[[0,0.5],[1,0.5]];portConstraint=eastwest;top=0;left=0;right=0;bottom=0;labelBackgroundColor=none;" parent="C-vyLk0tnHw3VtMMgP7b-23" vertex="1">
          <mxGeometry y="60" width="180" height="30" as="geometry" />
        </mxCell>
        <mxCell id="C-vyLk0tnHw3VtMMgP7b-28" value="" style="shape=partialRectangle;overflow=hidden;connectable=0;fillColor=none;top=0;left=0;bottom=0;right=0;labelBackgroundColor=none;labelBorderColor=none;perimeterSpacing=1;" parent="C-vyLk0tnHw3VtMMgP7b-27" vertex="1">
          <mxGeometry width="30" height="30" as="geometry">
            <mxRectangle width="30" height="30" as="alternateBounds" />
          </mxGeometry>
        </mxCell>
        <mxCell id="C-vyLk0tnHw3VtMMgP7b-29" value="username" style="shape=partialRectangle;overflow=hidden;connectable=0;fillColor=none;top=0;left=0;bottom=0;right=0;align=left;spacingLeft=6;labelBackgroundColor=none;labelBorderColor=none;perimeterSpacing=1;" parent="C-vyLk0tnHw3VtMMgP7b-27" vertex="1">
          <mxGeometry x="30" width="69.75" height="30" as="geometry">
            <mxRectangle width="69.75" height="30" as="alternateBounds" />
          </mxGeometry>
        </mxCell>
        <mxCell id="fgyODpVmvb1E_QNug-0B-2" value="varchar(50) " style="shape=partialRectangle;overflow=hidden;connectable=0;fillColor=none;top=0;left=0;bottom=0;right=0;align=left;spacingLeft=6;labelBackgroundColor=none;labelBorderColor=none;perimeterSpacing=1;" vertex="1" parent="C-vyLk0tnHw3VtMMgP7b-27">
          <mxGeometry x="99.75" width="80.25" height="30" as="geometry">
            <mxRectangle width="80.25" height="30" as="alternateBounds" />
          </mxGeometry>
        </mxCell>
        <mxCell id="fgyODpVmvb1E_QNug-0B-11" style="shape=partialRectangle;collapsible=0;dropTarget=0;pointerEvents=0;fillColor=none;points=[[0,0.5],[1,0.5]];portConstraint=eastwest;top=0;left=0;right=0;bottom=0;labelBackgroundColor=none;" vertex="1" parent="C-vyLk0tnHw3VtMMgP7b-23">
          <mxGeometry y="90" width="180" height="32" as="geometry" />
        </mxCell>
        <mxCell id="fgyODpVmvb1E_QNug-0B-12" style="shape=partialRectangle;overflow=hidden;connectable=0;fillColor=none;top=0;left=0;bottom=0;right=0;labelBackgroundColor=none;" vertex="1" parent="fgyODpVmvb1E_QNug-0B-11">
          <mxGeometry width="30" height="32" as="geometry">
            <mxRectangle width="30" height="32" as="alternateBounds" />
          </mxGeometry>
        </mxCell>
        <mxCell id="fgyODpVmvb1E_QNug-0B-13" value="password    varchar(50) " style="shape=partialRectangle;overflow=hidden;connectable=0;fillColor=none;top=0;left=0;bottom=0;right=0;align=left;spacingLeft=6;labelBackgroundColor=none;strokeColor=default;" vertex="1" parent="fgyODpVmvb1E_QNug-0B-11">
          <mxGeometry x="30" width="69.75" height="32" as="geometry">
            <mxRectangle width="69.75" height="32" as="alternateBounds" />
          </mxGeometry>
        </mxCell>
        <mxCell id="fgyODpVmvb1E_QNug-0B-14" value="varchar(50)" style="shape=partialRectangle;overflow=hidden;connectable=0;fillColor=none;top=0;left=0;bottom=0;right=0;align=left;spacingLeft=6;labelBackgroundColor=none;" vertex="1" parent="fgyODpVmvb1E_QNug-0B-11">
          <mxGeometry x="99.75" width="80.25" height="32" as="geometry">
            <mxRectangle width="80.25" height="32" as="alternateBounds" />
          </mxGeometry>
        </mxCell>
        <mxCell id="fgyODpVmvb1E_QNug-0B-19" style="shape=partialRectangle;collapsible=0;dropTarget=0;pointerEvents=0;fillColor=none;points=[[0,0.5],[1,0.5]];portConstraint=eastwest;top=0;left=0;right=0;bottom=0;labelBackgroundColor=none;" vertex="1" parent="C-vyLk0tnHw3VtMMgP7b-23">
          <mxGeometry y="122" width="180" height="32" as="geometry" />
        </mxCell>
        <mxCell id="fgyODpVmvb1E_QNug-0B-20" style="shape=partialRectangle;overflow=hidden;connectable=0;fillColor=none;top=0;left=0;bottom=0;right=0;labelBackgroundColor=none;" vertex="1" parent="fgyODpVmvb1E_QNug-0B-19">
          <mxGeometry width="30" height="32" as="geometry">
            <mxRectangle width="30" height="32" as="alternateBounds" />
          </mxGeometry>
        </mxCell>
        <mxCell id="fgyODpVmvb1E_QNug-0B-21" value="email            va" style="shape=partialRectangle;overflow=hidden;connectable=0;fillColor=none;top=0;left=0;bottom=0;right=0;align=left;spacingLeft=6;labelBackgroundColor=none;strokeColor=default;" vertex="1" parent="fgyODpVmvb1E_QNug-0B-19">
          <mxGeometry x="30" width="69.75" height="32" as="geometry">
            <mxRectangle width="69.75" height="32" as="alternateBounds" />
          </mxGeometry>
        </mxCell>
        <mxCell id="fgyODpVmvb1E_QNug-0B-22" value="varchar(50)" style="shape=partialRectangle;overflow=hidden;connectable=0;fillColor=none;top=0;left=0;bottom=0;right=0;align=left;spacingLeft=6;labelBackgroundColor=none;" vertex="1" parent="fgyODpVmvb1E_QNug-0B-19">
          <mxGeometry x="99.75" width="80.25" height="32" as="geometry">
            <mxRectangle width="80.25" height="32" as="alternateBounds" />
          </mxGeometry>
        </mxCell>
        <mxCell id="fgyODpVmvb1E_QNug-0B-23" style="shape=partialRectangle;collapsible=0;dropTarget=0;pointerEvents=0;fillColor=none;points=[[0,0.5],[1,0.5]];portConstraint=eastwest;top=0;left=0;right=0;bottom=0;labelBackgroundColor=none;" vertex="1" parent="C-vyLk0tnHw3VtMMgP7b-23">
          <mxGeometry y="154" width="180" height="32" as="geometry" />
        </mxCell>
        <mxCell id="fgyODpVmvb1E_QNug-0B-24" style="shape=partialRectangle;overflow=hidden;connectable=0;fillColor=none;top=0;left=0;bottom=0;right=0;labelBackgroundColor=none;" vertex="1" parent="fgyODpVmvb1E_QNug-0B-23">
          <mxGeometry width="30" height="32" as="geometry">
            <mxRectangle width="30" height="32" as="alternateBounds" />
          </mxGeometry>
        </mxCell>
        <mxCell id="fgyODpVmvb1E_QNug-0B-25" value="isAdmin    " style="shape=partialRectangle;overflow=hidden;connectable=0;fillColor=none;top=0;left=0;bottom=0;right=0;align=left;spacingLeft=6;labelBackgroundColor=none;strokeColor=default;" vertex="1" parent="fgyODpVmvb1E_QNug-0B-23">
          <mxGeometry x="30" width="69.75" height="32" as="geometry">
            <mxRectangle width="69.75" height="32" as="alternateBounds" />
          </mxGeometry>
        </mxCell>
        <mxCell id="fgyODpVmvb1E_QNug-0B-26" value="bool" style="shape=partialRectangle;overflow=hidden;connectable=0;fillColor=none;top=0;left=0;bottom=0;right=0;align=left;spacingLeft=6;labelBackgroundColor=none;" vertex="1" parent="fgyODpVmvb1E_QNug-0B-23">
          <mxGeometry x="99.75" width="80.25" height="32" as="geometry">
            <mxRectangle width="80.25" height="32" as="alternateBounds" />
          </mxGeometry>
        </mxCell>
        <mxCell id="fgyODpVmvb1E_QNug-0B-27" style="shape=partialRectangle;collapsible=0;dropTarget=0;pointerEvents=0;fillColor=none;points=[[0,0.5],[1,0.5]];portConstraint=eastwest;top=0;left=0;right=0;bottom=0;labelBackgroundColor=none;" vertex="1" parent="C-vyLk0tnHw3VtMMgP7b-23">
          <mxGeometry y="186" width="180" height="32" as="geometry" />
        </mxCell>
        <mxCell id="fgyODpVmvb1E_QNug-0B-28" value="FK" style="shape=partialRectangle;overflow=hidden;connectable=0;fillColor=none;top=0;left=0;bottom=0;right=0;labelBackgroundColor=none;" vertex="1" parent="fgyODpVmvb1E_QNug-0B-27">
          <mxGeometry width="30" height="32" as="geometry">
            <mxRectangle width="30" height="32" as="alternateBounds" />
          </mxGeometry>
        </mxCell>
        <mxCell id="fgyODpVmvb1E_QNug-0B-29" value="clubs    " style="shape=partialRectangle;overflow=hidden;connectable=0;fillColor=none;top=0;left=0;bottom=0;right=0;align=left;spacingLeft=6;labelBackgroundColor=none;strokeColor=default;" vertex="1" parent="fgyODpVmvb1E_QNug-0B-27">
          <mxGeometry x="30" width="69.75" height="32" as="geometry">
            <mxRectangle width="69.75" height="32" as="alternateBounds" />
          </mxGeometry>
        </mxCell>
        <mxCell id="fgyODpVmvb1E_QNug-0B-30" value="int []" style="shape=partialRectangle;overflow=hidden;connectable=0;fillColor=none;top=0;left=0;bottom=0;right=0;align=left;spacingLeft=6;labelBackgroundColor=none;" vertex="1" parent="fgyODpVmvb1E_QNug-0B-27">
          <mxGeometry x="99.75" width="80.25" height="32" as="geometry">
            <mxRectangle width="80.25" height="32" as="alternateBounds" />
          </mxGeometry>
        </mxCell>
        <mxCell id="fgyODpVmvb1E_QNug-0B-31" value="Club" style="shape=table;startSize=30;container=1;collapsible=1;childLayout=tableLayout;fixedRows=1;rowLines=0;fontStyle=1;align=center;resizeLast=1;labelBackgroundColor=none;swimlaneLine=1;" vertex="1" parent="1">
          <mxGeometry x="348" y="338" width="207.47058823529437" height="282" as="geometry" />
        </mxCell>
        <mxCell id="fgyODpVmvb1E_QNug-0B-32" value="" style="shape=partialRectangle;collapsible=0;dropTarget=0;pointerEvents=0;fillColor=none;points=[[0,0.5],[1,0.5]];portConstraint=eastwest;top=0;left=0;right=0;bottom=1;labelBackgroundColor=none;" vertex="1" parent="fgyODpVmvb1E_QNug-0B-31">
          <mxGeometry y="30" width="207.47058823529437" height="30" as="geometry" />
        </mxCell>
        <mxCell id="fgyODpVmvb1E_QNug-0B-33" value="PK" style="shape=partialRectangle;overflow=hidden;connectable=0;fillColor=none;top=0;left=0;bottom=0;right=0;fontStyle=1;labelBackgroundColor=none;" vertex="1" parent="fgyODpVmvb1E_QNug-0B-32">
          <mxGeometry width="30" height="30" as="geometry">
            <mxRectangle width="30" height="30" as="alternateBounds" />
          </mxGeometry>
        </mxCell>
        <mxCell id="fgyODpVmvb1E_QNug-0B-34" value="club_id" style="shape=partialRectangle;overflow=hidden;connectable=0;fillColor=none;top=0;left=0;bottom=0;right=0;align=left;spacingLeft=6;fontStyle=5;labelBackgroundColor=none;" vertex="1" parent="fgyODpVmvb1E_QNug-0B-32">
          <mxGeometry x="30" width="81.00000000000017" height="30" as="geometry">
            <mxRectangle width="81.00000000000017" height="30" as="alternateBounds" />
          </mxGeometry>
        </mxCell>
        <mxCell id="fgyODpVmvb1E_QNug-0B-35" value="int" style="shape=partialRectangle;overflow=hidden;connectable=0;fillColor=none;top=0;left=0;bottom=0;right=0;align=left;spacingLeft=6;fontStyle=5;labelBackgroundColor=none;" vertex="1" parent="fgyODpVmvb1E_QNug-0B-32">
          <mxGeometry x="111.00000000000017" width="96.4705882352942" height="30" as="geometry">
            <mxRectangle width="96.4705882352942" height="30" as="alternateBounds" />
          </mxGeometry>
        </mxCell>
        <mxCell id="fgyODpVmvb1E_QNug-0B-36" value="" style="shape=partialRectangle;collapsible=0;dropTarget=0;pointerEvents=0;fillColor=none;points=[[0,0.5],[1,0.5]];portConstraint=eastwest;top=0;left=0;right=0;bottom=0;labelBackgroundColor=none;" vertex="1" parent="fgyODpVmvb1E_QNug-0B-31">
          <mxGeometry y="60" width="207.47058823529437" height="30" as="geometry" />
        </mxCell>
        <mxCell id="fgyODpVmvb1E_QNug-0B-37" value="" style="shape=partialRectangle;overflow=hidden;connectable=0;fillColor=none;top=0;left=0;bottom=0;right=0;labelBackgroundColor=none;labelBorderColor=none;perimeterSpacing=1;" vertex="1" parent="fgyODpVmvb1E_QNug-0B-36">
          <mxGeometry width="30" height="30" as="geometry">
            <mxRectangle width="30" height="30" as="alternateBounds" />
          </mxGeometry>
        </mxCell>
        <mxCell id="fgyODpVmvb1E_QNug-0B-38" value="club_name" style="shape=partialRectangle;overflow=hidden;connectable=0;fillColor=none;top=0;left=0;bottom=0;right=0;align=left;spacingLeft=6;labelBackgroundColor=none;labelBorderColor=none;perimeterSpacing=1;" vertex="1" parent="fgyODpVmvb1E_QNug-0B-36">
          <mxGeometry x="30" width="81.00000000000017" height="30" as="geometry">
            <mxRectangle width="81.00000000000017" height="30" as="alternateBounds" />
          </mxGeometry>
        </mxCell>
        <mxCell id="fgyODpVmvb1E_QNug-0B-39" value="varchar(50) " style="shape=partialRectangle;overflow=hidden;connectable=0;fillColor=none;top=0;left=0;bottom=0;right=0;align=left;spacingLeft=6;labelBackgroundColor=none;labelBorderColor=none;perimeterSpacing=1;" vertex="1" parent="fgyODpVmvb1E_QNug-0B-36">
          <mxGeometry x="111.00000000000017" width="96.4705882352942" height="30" as="geometry">
            <mxRectangle width="96.4705882352942" height="30" as="alternateBounds" />
          </mxGeometry>
        </mxCell>
        <mxCell id="fgyODpVmvb1E_QNug-0B-40" style="shape=partialRectangle;collapsible=0;dropTarget=0;pointerEvents=0;fillColor=none;points=[[0,0.5],[1,0.5]];portConstraint=eastwest;top=0;left=0;right=0;bottom=0;labelBackgroundColor=none;" vertex="1" parent="fgyODpVmvb1E_QNug-0B-31">
          <mxGeometry y="90" width="207.47058823529437" height="32" as="geometry" />
        </mxCell>
        <mxCell id="fgyODpVmvb1E_QNug-0B-41" style="shape=partialRectangle;overflow=hidden;connectable=0;fillColor=none;top=0;left=0;bottom=0;right=0;labelBackgroundColor=none;" vertex="1" parent="fgyODpVmvb1E_QNug-0B-40">
          <mxGeometry width="30" height="32" as="geometry">
            <mxRectangle width="30" height="32" as="alternateBounds" />
          </mxGeometry>
        </mxCell>
        <mxCell id="fgyODpVmvb1E_QNug-0B-42" value="club_logo" style="shape=partialRectangle;overflow=hidden;connectable=0;fillColor=none;top=0;left=0;bottom=0;right=0;align=left;spacingLeft=6;labelBackgroundColor=none;strokeColor=default;" vertex="1" parent="fgyODpVmvb1E_QNug-0B-40">
          <mxGeometry x="30" width="81.00000000000017" height="32" as="geometry">
            <mxRectangle width="81.00000000000017" height="32" as="alternateBounds" />
          </mxGeometry>
        </mxCell>
        <mxCell id="fgyODpVmvb1E_QNug-0B-43" value="varchar(50)" style="shape=partialRectangle;overflow=hidden;connectable=0;fillColor=none;top=0;left=0;bottom=0;right=0;align=left;spacingLeft=6;labelBackgroundColor=none;" vertex="1" parent="fgyODpVmvb1E_QNug-0B-40">
          <mxGeometry x="111.00000000000017" width="96.4705882352942" height="32" as="geometry">
            <mxRectangle width="96.4705882352942" height="32" as="alternateBounds" />
          </mxGeometry>
        </mxCell>
        <mxCell id="fgyODpVmvb1E_QNug-0B-150" style="shape=partialRectangle;collapsible=0;dropTarget=0;pointerEvents=0;fillColor=none;points=[[0,0.5],[1,0.5]];portConstraint=eastwest;top=0;left=0;right=0;bottom=0;labelBackgroundColor=none;" vertex="1" parent="fgyODpVmvb1E_QNug-0B-31">
          <mxGeometry y="122" width="207.47058823529437" height="32" as="geometry" />
        </mxCell>
        <mxCell id="fgyODpVmvb1E_QNug-0B-151" style="shape=partialRectangle;overflow=hidden;connectable=0;fillColor=none;top=0;left=0;bottom=0;right=0;labelBackgroundColor=none;" vertex="1" parent="fgyODpVmvb1E_QNug-0B-150">
          <mxGeometry width="30" height="32" as="geometry">
            <mxRectangle width="30" height="32" as="alternateBounds" />
          </mxGeometry>
        </mxCell>
        <mxCell id="fgyODpVmvb1E_QNug-0B-152" value="filed" style="shape=partialRectangle;overflow=hidden;connectable=0;fillColor=none;top=0;left=0;bottom=0;right=0;align=left;spacingLeft=6;labelBackgroundColor=none;strokeColor=default;" vertex="1" parent="fgyODpVmvb1E_QNug-0B-150">
          <mxGeometry x="30" width="81.00000000000017" height="32" as="geometry">
            <mxRectangle width="81.00000000000017" height="32" as="alternateBounds" />
          </mxGeometry>
        </mxCell>
        <mxCell id="fgyODpVmvb1E_QNug-0B-153" value="varchar(50)" style="shape=partialRectangle;overflow=hidden;connectable=0;fillColor=none;top=0;left=0;bottom=0;right=0;align=left;spacingLeft=6;labelBackgroundColor=none;" vertex="1" parent="fgyODpVmvb1E_QNug-0B-150">
          <mxGeometry x="111.00000000000017" width="96.4705882352942" height="32" as="geometry">
            <mxRectangle width="96.4705882352942" height="32" as="alternateBounds" />
          </mxGeometry>
        </mxCell>
        <mxCell id="fgyODpVmvb1E_QNug-0B-258" style="shape=partialRectangle;collapsible=0;dropTarget=0;pointerEvents=0;fillColor=none;points=[[0,0.5],[1,0.5]];portConstraint=eastwest;top=0;left=0;right=0;bottom=0;labelBackgroundColor=none;" vertex="1" parent="fgyODpVmvb1E_QNug-0B-31">
          <mxGeometry y="154" width="207.47058823529437" height="32" as="geometry" />
        </mxCell>
        <mxCell id="fgyODpVmvb1E_QNug-0B-259" style="shape=partialRectangle;overflow=hidden;connectable=0;fillColor=none;top=0;left=0;bottom=0;right=0;labelBackgroundColor=none;" vertex="1" parent="fgyODpVmvb1E_QNug-0B-258">
          <mxGeometry width="30" height="32" as="geometry">
            <mxRectangle width="30" height="32" as="alternateBounds" />
          </mxGeometry>
        </mxCell>
        <mxCell id="fgyODpVmvb1E_QNug-0B-260" value="ticket_link" style="shape=partialRectangle;overflow=hidden;connectable=0;fillColor=none;top=0;left=0;bottom=0;right=0;align=left;spacingLeft=6;labelBackgroundColor=none;strokeColor=default;" vertex="1" parent="fgyODpVmvb1E_QNug-0B-258">
          <mxGeometry x="30" width="81.00000000000017" height="32" as="geometry">
            <mxRectangle width="81.00000000000017" height="32" as="alternateBounds" />
          </mxGeometry>
        </mxCell>
        <mxCell id="fgyODpVmvb1E_QNug-0B-261" value="varchar(50)" style="shape=partialRectangle;overflow=hidden;connectable=0;fillColor=none;top=0;left=0;bottom=0;right=0;align=left;spacingLeft=6;labelBackgroundColor=none;" vertex="1" parent="fgyODpVmvb1E_QNug-0B-258">
          <mxGeometry x="111.00000000000017" width="96.4705882352942" height="32" as="geometry">
            <mxRectangle width="96.4705882352942" height="32" as="alternateBounds" />
          </mxGeometry>
        </mxCell>
        <mxCell id="fgyODpVmvb1E_QNug-0B-212" style="shape=partialRectangle;collapsible=0;dropTarget=0;pointerEvents=0;fillColor=none;points=[[0,0.5],[1,0.5]];portConstraint=eastwest;top=0;left=0;right=0;bottom=0;labelBackgroundColor=none;" vertex="1" parent="fgyODpVmvb1E_QNug-0B-31">
          <mxGeometry y="186" width="207.47058823529437" height="32" as="geometry" />
        </mxCell>
        <mxCell id="fgyODpVmvb1E_QNug-0B-213" value="FK3" style="shape=partialRectangle;overflow=hidden;connectable=0;fillColor=none;top=0;left=0;bottom=0;right=0;labelBackgroundColor=none;" vertex="1" parent="fgyODpVmvb1E_QNug-0B-212">
          <mxGeometry width="30" height="32" as="geometry">
            <mxRectangle width="30" height="32" as="alternateBounds" />
          </mxGeometry>
        </mxCell>
        <mxCell id="fgyODpVmvb1E_QNug-0B-214" value="league_stats" style="shape=partialRectangle;overflow=hidden;connectable=0;fillColor=none;top=0;left=0;bottom=0;right=0;align=left;spacingLeft=6;labelBackgroundColor=none;strokeColor=default;" vertex="1" parent="fgyODpVmvb1E_QNug-0B-212">
          <mxGeometry x="30" width="81.00000000000017" height="32" as="geometry">
            <mxRectangle width="81.00000000000017" height="32" as="alternateBounds" />
          </mxGeometry>
        </mxCell>
        <mxCell id="fgyODpVmvb1E_QNug-0B-215" value="int" style="shape=partialRectangle;overflow=hidden;connectable=0;fillColor=none;top=0;left=0;bottom=0;right=0;align=left;spacingLeft=6;labelBackgroundColor=none;" vertex="1" parent="fgyODpVmvb1E_QNug-0B-212">
          <mxGeometry x="111.00000000000017" width="96.4705882352942" height="32" as="geometry">
            <mxRectangle width="96.4705882352942" height="32" as="alternateBounds" />
          </mxGeometry>
        </mxCell>
        <mxCell id="fgyODpVmvb1E_QNug-0B-44" style="shape=partialRectangle;collapsible=0;dropTarget=0;pointerEvents=0;fillColor=none;points=[[0,0.5],[1,0.5]];portConstraint=eastwest;top=0;left=0;right=0;bottom=0;labelBackgroundColor=none;" vertex="1" parent="fgyODpVmvb1E_QNug-0B-31">
          <mxGeometry y="218" width="207.47058823529437" height="32" as="geometry" />
        </mxCell>
        <mxCell id="fgyODpVmvb1E_QNug-0B-45" value="FK1" style="shape=partialRectangle;overflow=hidden;connectable=0;fillColor=none;top=0;left=0;bottom=0;right=0;labelBackgroundColor=none;" vertex="1" parent="fgyODpVmvb1E_QNug-0B-44">
          <mxGeometry width="30" height="32" as="geometry">
            <mxRectangle width="30" height="32" as="alternateBounds" />
          </mxGeometry>
        </mxCell>
        <mxCell id="fgyODpVmvb1E_QNug-0B-46" value="players" style="shape=partialRectangle;overflow=hidden;connectable=0;fillColor=none;top=0;left=0;bottom=0;right=0;align=left;spacingLeft=6;labelBackgroundColor=none;strokeColor=default;" vertex="1" parent="fgyODpVmvb1E_QNug-0B-44">
          <mxGeometry x="30" width="81.00000000000017" height="32" as="geometry">
            <mxRectangle width="81.00000000000017" height="32" as="alternateBounds" />
          </mxGeometry>
        </mxCell>
        <mxCell id="fgyODpVmvb1E_QNug-0B-47" value="int []" style="shape=partialRectangle;overflow=hidden;connectable=0;fillColor=none;top=0;left=0;bottom=0;right=0;align=left;spacingLeft=6;labelBackgroundColor=none;" vertex="1" parent="fgyODpVmvb1E_QNug-0B-44">
          <mxGeometry x="111.00000000000017" width="96.4705882352942" height="32" as="geometry">
            <mxRectangle width="96.4705882352942" height="32" as="alternateBounds" />
          </mxGeometry>
        </mxCell>
        <mxCell id="fgyODpVmvb1E_QNug-0B-48" style="shape=partialRectangle;collapsible=0;dropTarget=0;pointerEvents=0;fillColor=none;points=[[0,0.5],[1,0.5]];portConstraint=eastwest;top=0;left=0;right=0;bottom=0;labelBackgroundColor=none;" vertex="1" parent="fgyODpVmvb1E_QNug-0B-31">
          <mxGeometry y="250" width="207.47058823529437" height="32" as="geometry" />
        </mxCell>
        <mxCell id="fgyODpVmvb1E_QNug-0B-49" value="FK2" style="shape=partialRectangle;overflow=hidden;connectable=0;fillColor=none;top=0;left=0;bottom=0;right=0;labelBackgroundColor=none;" vertex="1" parent="fgyODpVmvb1E_QNug-0B-48">
          <mxGeometry width="30" height="32" as="geometry">
            <mxRectangle width="30" height="32" as="alternateBounds" />
          </mxGeometry>
        </mxCell>
        <mxCell id="fgyODpVmvb1E_QNug-0B-50" value="next_match" style="shape=partialRectangle;overflow=hidden;connectable=0;fillColor=none;top=0;left=0;bottom=0;right=0;align=left;spacingLeft=6;labelBackgroundColor=none;strokeColor=default;" vertex="1" parent="fgyODpVmvb1E_QNug-0B-48">
          <mxGeometry x="30" width="81.00000000000017" height="32" as="geometry">
            <mxRectangle width="81.00000000000017" height="32" as="alternateBounds" />
          </mxGeometry>
        </mxCell>
        <mxCell id="fgyODpVmvb1E_QNug-0B-51" value="int" style="shape=partialRectangle;overflow=hidden;connectable=0;fillColor=none;top=0;left=0;bottom=0;right=0;align=left;spacingLeft=6;labelBackgroundColor=none;" vertex="1" parent="fgyODpVmvb1E_QNug-0B-48">
          <mxGeometry x="111.00000000000017" width="96.4705882352942" height="32" as="geometry">
            <mxRectangle width="96.4705882352942" height="32" as="alternateBounds" />
          </mxGeometry>
        </mxCell>
        <mxCell id="fgyODpVmvb1E_QNug-0B-57" value="Player" style="shape=table;startSize=30;container=1;collapsible=1;childLayout=tableLayout;fixedRows=1;rowLines=0;fontStyle=1;align=center;resizeLast=1;labelBackgroundColor=none;swimlaneLine=1;" vertex="1" parent="1">
          <mxGeometry x="41" y="349" width="180" height="186" as="geometry" />
        </mxCell>
        <mxCell id="fgyODpVmvb1E_QNug-0B-58" value="" style="shape=partialRectangle;collapsible=0;dropTarget=0;pointerEvents=0;fillColor=none;points=[[0,0.5],[1,0.5]];portConstraint=eastwest;top=0;left=0;right=0;bottom=1;labelBackgroundColor=none;" vertex="1" parent="fgyODpVmvb1E_QNug-0B-57">
          <mxGeometry y="30" width="180" height="30" as="geometry" />
        </mxCell>
        <mxCell id="fgyODpVmvb1E_QNug-0B-59" value="PK" style="shape=partialRectangle;overflow=hidden;connectable=0;fillColor=none;top=0;left=0;bottom=0;right=0;fontStyle=1;labelBackgroundColor=none;" vertex="1" parent="fgyODpVmvb1E_QNug-0B-58">
          <mxGeometry width="30" height="30" as="geometry">
            <mxRectangle width="30" height="30" as="alternateBounds" />
          </mxGeometry>
        </mxCell>
        <mxCell id="fgyODpVmvb1E_QNug-0B-60" value="player_id" style="shape=partialRectangle;overflow=hidden;connectable=0;fillColor=none;top=0;left=0;bottom=0;right=0;align=left;spacingLeft=6;fontStyle=5;labelBackgroundColor=none;" vertex="1" parent="fgyODpVmvb1E_QNug-0B-58">
          <mxGeometry x="30" width="69.75" height="30" as="geometry">
            <mxRectangle width="69.75" height="30" as="alternateBounds" />
          </mxGeometry>
        </mxCell>
        <mxCell id="fgyODpVmvb1E_QNug-0B-61" value="int" style="shape=partialRectangle;overflow=hidden;connectable=0;fillColor=none;top=0;left=0;bottom=0;right=0;align=left;spacingLeft=6;fontStyle=5;labelBackgroundColor=none;" vertex="1" parent="fgyODpVmvb1E_QNug-0B-58">
          <mxGeometry x="99.75" width="80.25" height="30" as="geometry">
            <mxRectangle width="80.25" height="30" as="alternateBounds" />
          </mxGeometry>
        </mxCell>
        <mxCell id="fgyODpVmvb1E_QNug-0B-62" value="" style="shape=partialRectangle;collapsible=0;dropTarget=0;pointerEvents=0;fillColor=none;points=[[0,0.5],[1,0.5]];portConstraint=eastwest;top=0;left=0;right=0;bottom=0;labelBackgroundColor=none;" vertex="1" parent="fgyODpVmvb1E_QNug-0B-57">
          <mxGeometry y="60" width="180" height="30" as="geometry" />
        </mxCell>
        <mxCell id="fgyODpVmvb1E_QNug-0B-63" value="" style="shape=partialRectangle;overflow=hidden;connectable=0;fillColor=none;top=0;left=0;bottom=0;right=0;labelBackgroundColor=none;labelBorderColor=none;perimeterSpacing=1;" vertex="1" parent="fgyODpVmvb1E_QNug-0B-62">
          <mxGeometry width="30" height="30" as="geometry">
            <mxRectangle width="30" height="30" as="alternateBounds" />
          </mxGeometry>
        </mxCell>
        <mxCell id="fgyODpVmvb1E_QNug-0B-64" value="name" style="shape=partialRectangle;overflow=hidden;connectable=0;fillColor=none;top=0;left=0;bottom=0;right=0;align=left;spacingLeft=6;labelBackgroundColor=none;labelBorderColor=none;perimeterSpacing=1;" vertex="1" parent="fgyODpVmvb1E_QNug-0B-62">
          <mxGeometry x="30" width="69.75" height="30" as="geometry">
            <mxRectangle width="69.75" height="30" as="alternateBounds" />
          </mxGeometry>
        </mxCell>
        <mxCell id="fgyODpVmvb1E_QNug-0B-65" value="varchar(50) " style="shape=partialRectangle;overflow=hidden;connectable=0;fillColor=none;top=0;left=0;bottom=0;right=0;align=left;spacingLeft=6;labelBackgroundColor=none;labelBorderColor=none;perimeterSpacing=1;" vertex="1" parent="fgyODpVmvb1E_QNug-0B-62">
          <mxGeometry x="99.75" width="80.25" height="30" as="geometry">
            <mxRectangle width="80.25" height="30" as="alternateBounds" />
          </mxGeometry>
        </mxCell>
        <mxCell id="fgyODpVmvb1E_QNug-0B-66" style="shape=partialRectangle;collapsible=0;dropTarget=0;pointerEvents=0;fillColor=none;points=[[0,0.5],[1,0.5]];portConstraint=eastwest;top=0;left=0;right=0;bottom=0;labelBackgroundColor=none;" vertex="1" parent="fgyODpVmvb1E_QNug-0B-57">
          <mxGeometry y="90" width="180" height="32" as="geometry" />
        </mxCell>
        <mxCell id="fgyODpVmvb1E_QNug-0B-67" value="FK" style="shape=partialRectangle;overflow=hidden;connectable=0;fillColor=none;top=0;left=0;bottom=0;right=0;labelBackgroundColor=none;" vertex="1" parent="fgyODpVmvb1E_QNug-0B-66">
          <mxGeometry width="30" height="32" as="geometry">
            <mxRectangle width="30" height="32" as="alternateBounds" />
          </mxGeometry>
        </mxCell>
        <mxCell id="fgyODpVmvb1E_QNug-0B-68" value="club" style="shape=partialRectangle;overflow=hidden;connectable=0;fillColor=none;top=0;left=0;bottom=0;right=0;align=left;spacingLeft=6;labelBackgroundColor=none;strokeColor=default;" vertex="1" parent="fgyODpVmvb1E_QNug-0B-66">
          <mxGeometry x="30" width="69.75" height="32" as="geometry">
            <mxRectangle width="69.75" height="32" as="alternateBounds" />
          </mxGeometry>
        </mxCell>
        <mxCell id="fgyODpVmvb1E_QNug-0B-69" value="int" style="shape=partialRectangle;overflow=hidden;connectable=0;fillColor=none;top=0;left=0;bottom=0;right=0;align=left;spacingLeft=6;labelBackgroundColor=none;" vertex="1" parent="fgyODpVmvb1E_QNug-0B-66">
          <mxGeometry x="99.75" width="80.25" height="32" as="geometry">
            <mxRectangle width="80.25" height="32" as="alternateBounds" />
          </mxGeometry>
        </mxCell>
        <mxCell id="fgyODpVmvb1E_QNug-0B-70" style="shape=partialRectangle;collapsible=0;dropTarget=0;pointerEvents=0;fillColor=none;points=[[0,0.5],[1,0.5]];portConstraint=eastwest;top=0;left=0;right=0;bottom=0;labelBackgroundColor=none;" vertex="1" parent="fgyODpVmvb1E_QNug-0B-57">
          <mxGeometry y="122" width="180" height="32" as="geometry" />
        </mxCell>
        <mxCell id="fgyODpVmvb1E_QNug-0B-71" value="" style="shape=partialRectangle;overflow=hidden;connectable=0;fillColor=none;top=0;left=0;bottom=0;right=0;labelBackgroundColor=none;" vertex="1" parent="fgyODpVmvb1E_QNug-0B-70">
          <mxGeometry width="30" height="32" as="geometry">
            <mxRectangle width="30" height="32" as="alternateBounds" />
          </mxGeometry>
        </mxCell>
        <mxCell id="fgyODpVmvb1E_QNug-0B-72" value="role" style="shape=partialRectangle;overflow=hidden;connectable=0;fillColor=none;top=0;left=0;bottom=0;right=0;align=left;spacingLeft=6;labelBackgroundColor=none;strokeColor=default;" vertex="1" parent="fgyODpVmvb1E_QNug-0B-70">
          <mxGeometry x="30" width="69.75" height="32" as="geometry">
            <mxRectangle width="69.75" height="32" as="alternateBounds" />
          </mxGeometry>
        </mxCell>
        <mxCell id="fgyODpVmvb1E_QNug-0B-73" value="varchar(50)" style="shape=partialRectangle;overflow=hidden;connectable=0;fillColor=none;top=0;left=0;bottom=0;right=0;align=left;spacingLeft=6;labelBackgroundColor=none;" vertex="1" parent="fgyODpVmvb1E_QNug-0B-70">
          <mxGeometry x="99.75" width="80.25" height="32" as="geometry">
            <mxRectangle width="80.25" height="32" as="alternateBounds" />
          </mxGeometry>
        </mxCell>
        <mxCell id="fgyODpVmvb1E_QNug-0B-74" style="shape=partialRectangle;collapsible=0;dropTarget=0;pointerEvents=0;fillColor=none;points=[[0,0.5],[1,0.5]];portConstraint=eastwest;top=0;left=0;right=0;bottom=0;labelBackgroundColor=none;" vertex="1" parent="fgyODpVmvb1E_QNug-0B-57">
          <mxGeometry y="154" width="180" height="32" as="geometry" />
        </mxCell>
        <mxCell id="fgyODpVmvb1E_QNug-0B-75" value="" style="shape=partialRectangle;overflow=hidden;connectable=0;fillColor=none;top=0;left=0;bottom=0;right=0;labelBackgroundColor=none;" vertex="1" parent="fgyODpVmvb1E_QNug-0B-74">
          <mxGeometry width="30" height="32" as="geometry">
            <mxRectangle width="30" height="32" as="alternateBounds" />
          </mxGeometry>
        </mxCell>
        <mxCell id="fgyODpVmvb1E_QNug-0B-76" value="number" style="shape=partialRectangle;overflow=hidden;connectable=0;fillColor=none;top=0;left=0;bottom=0;right=0;align=left;spacingLeft=6;labelBackgroundColor=none;strokeColor=default;" vertex="1" parent="fgyODpVmvb1E_QNug-0B-74">
          <mxGeometry x="30" width="69.75" height="32" as="geometry">
            <mxRectangle width="69.75" height="32" as="alternateBounds" />
          </mxGeometry>
        </mxCell>
        <mxCell id="fgyODpVmvb1E_QNug-0B-77" value="int" style="shape=partialRectangle;overflow=hidden;connectable=0;fillColor=none;top=0;left=0;bottom=0;right=0;align=left;spacingLeft=6;labelBackgroundColor=none;" vertex="1" parent="fgyODpVmvb1E_QNug-0B-74">
          <mxGeometry x="99.75" width="80.25" height="32" as="geometry">
            <mxRectangle width="80.25" height="32" as="alternateBounds" />
          </mxGeometry>
        </mxCell>
        <mxCell id="fgyODpVmvb1E_QNug-0B-78" value="Match" style="shape=table;startSize=30;container=1;collapsible=1;childLayout=tableLayout;fixedRows=1;rowLines=0;fontStyle=1;align=center;resizeLast=1;labelBackgroundColor=none;swimlaneLine=1;" vertex="1" parent="1">
          <mxGeometry x="613" y="53" width="180" height="282" as="geometry" />
        </mxCell>
        <mxCell id="fgyODpVmvb1E_QNug-0B-79" value="" style="shape=partialRectangle;collapsible=0;dropTarget=0;pointerEvents=0;fillColor=none;points=[[0,0.5],[1,0.5]];portConstraint=eastwest;top=0;left=0;right=0;bottom=1;labelBackgroundColor=none;" vertex="1" parent="fgyODpVmvb1E_QNug-0B-78">
          <mxGeometry y="30" width="180" height="30" as="geometry" />
        </mxCell>
        <mxCell id="fgyODpVmvb1E_QNug-0B-80" value="PK" style="shape=partialRectangle;overflow=hidden;connectable=0;fillColor=none;top=0;left=0;bottom=0;right=0;fontStyle=1;labelBackgroundColor=none;" vertex="1" parent="fgyODpVmvb1E_QNug-0B-79">
          <mxGeometry width="30" height="30" as="geometry">
            <mxRectangle width="30" height="30" as="alternateBounds" />
          </mxGeometry>
        </mxCell>
        <mxCell id="fgyODpVmvb1E_QNug-0B-81" value="match_id" style="shape=partialRectangle;overflow=hidden;connectable=0;fillColor=none;top=0;left=0;bottom=0;right=0;align=left;spacingLeft=6;fontStyle=5;labelBackgroundColor=none;" vertex="1" parent="fgyODpVmvb1E_QNug-0B-79">
          <mxGeometry x="30" width="69.75" height="30" as="geometry">
            <mxRectangle width="69.75" height="30" as="alternateBounds" />
          </mxGeometry>
        </mxCell>
        <mxCell id="fgyODpVmvb1E_QNug-0B-82" value="int" style="shape=partialRectangle;overflow=hidden;connectable=0;fillColor=none;top=0;left=0;bottom=0;right=0;align=left;spacingLeft=6;fontStyle=5;labelBackgroundColor=none;" vertex="1" parent="fgyODpVmvb1E_QNug-0B-79">
          <mxGeometry x="99.75" width="80.25" height="30" as="geometry">
            <mxRectangle width="80.25" height="30" as="alternateBounds" />
          </mxGeometry>
        </mxCell>
        <mxCell id="fgyODpVmvb1E_QNug-0B-83" value="" style="shape=partialRectangle;collapsible=0;dropTarget=0;pointerEvents=0;fillColor=none;points=[[0,0.5],[1,0.5]];portConstraint=eastwest;top=0;left=0;right=0;bottom=0;labelBackgroundColor=none;" vertex="1" parent="fgyODpVmvb1E_QNug-0B-78">
          <mxGeometry y="60" width="180" height="30" as="geometry" />
        </mxCell>
        <mxCell id="fgyODpVmvb1E_QNug-0B-84" value="FK1" style="shape=partialRectangle;overflow=hidden;connectable=0;fillColor=none;top=0;left=0;bottom=0;right=0;labelBackgroundColor=none;labelBorderColor=none;perimeterSpacing=1;" vertex="1" parent="fgyODpVmvb1E_QNug-0B-83">
          <mxGeometry width="30" height="30" as="geometry">
            <mxRectangle width="30" height="30" as="alternateBounds" />
          </mxGeometry>
        </mxCell>
        <mxCell id="fgyODpVmvb1E_QNug-0B-85" value="home" style="shape=partialRectangle;overflow=hidden;connectable=0;fillColor=none;top=0;left=0;bottom=0;right=0;align=left;spacingLeft=6;labelBackgroundColor=none;labelBorderColor=none;perimeterSpacing=1;" vertex="1" parent="fgyODpVmvb1E_QNug-0B-83">
          <mxGeometry x="30" width="69.75" height="30" as="geometry">
            <mxRectangle width="69.75" height="30" as="alternateBounds" />
          </mxGeometry>
        </mxCell>
        <mxCell id="fgyODpVmvb1E_QNug-0B-86" value="int" style="shape=partialRectangle;overflow=hidden;connectable=0;fillColor=none;top=0;left=0;bottom=0;right=0;align=left;spacingLeft=6;labelBackgroundColor=none;labelBorderColor=none;perimeterSpacing=1;" vertex="1" parent="fgyODpVmvb1E_QNug-0B-83">
          <mxGeometry x="99.75" width="80.25" height="30" as="geometry">
            <mxRectangle width="80.25" height="30" as="alternateBounds" />
          </mxGeometry>
        </mxCell>
        <mxCell id="fgyODpVmvb1E_QNug-0B-87" style="shape=partialRectangle;collapsible=0;dropTarget=0;pointerEvents=0;fillColor=none;points=[[0,0.5],[1,0.5]];portConstraint=eastwest;top=0;left=0;right=0;bottom=0;labelBackgroundColor=none;" vertex="1" parent="fgyODpVmvb1E_QNug-0B-78">
          <mxGeometry y="90" width="180" height="32" as="geometry" />
        </mxCell>
        <mxCell id="fgyODpVmvb1E_QNug-0B-88" value="FK2" style="shape=partialRectangle;overflow=hidden;connectable=0;fillColor=none;top=0;left=0;bottom=0;right=0;labelBackgroundColor=none;" vertex="1" parent="fgyODpVmvb1E_QNug-0B-87">
          <mxGeometry width="30" height="32" as="geometry">
            <mxRectangle width="30" height="32" as="alternateBounds" />
          </mxGeometry>
        </mxCell>
        <mxCell id="fgyODpVmvb1E_QNug-0B-89" value="away" style="shape=partialRectangle;overflow=hidden;connectable=0;fillColor=none;top=0;left=0;bottom=0;right=0;align=left;spacingLeft=6;labelBackgroundColor=none;strokeColor=default;" vertex="1" parent="fgyODpVmvb1E_QNug-0B-87">
          <mxGeometry x="30" width="69.75" height="32" as="geometry">
            <mxRectangle width="69.75" height="32" as="alternateBounds" />
          </mxGeometry>
        </mxCell>
        <mxCell id="fgyODpVmvb1E_QNug-0B-90" value="int" style="shape=partialRectangle;overflow=hidden;connectable=0;fillColor=none;top=0;left=0;bottom=0;right=0;align=left;spacingLeft=6;labelBackgroundColor=none;" vertex="1" parent="fgyODpVmvb1E_QNug-0B-87">
          <mxGeometry x="99.75" width="80.25" height="32" as="geometry">
            <mxRectangle width="80.25" height="32" as="alternateBounds" />
          </mxGeometry>
        </mxCell>
        <mxCell id="fgyODpVmvb1E_QNug-0B-91" style="shape=partialRectangle;collapsible=0;dropTarget=0;pointerEvents=0;fillColor=none;points=[[0,0.5],[1,0.5]];portConstraint=eastwest;top=0;left=0;right=0;bottom=0;labelBackgroundColor=none;" vertex="1" parent="fgyODpVmvb1E_QNug-0B-78">
          <mxGeometry y="122" width="180" height="32" as="geometry" />
        </mxCell>
        <mxCell id="fgyODpVmvb1E_QNug-0B-92" value="" style="shape=partialRectangle;overflow=hidden;connectable=0;fillColor=none;top=0;left=0;bottom=0;right=0;labelBackgroundColor=none;" vertex="1" parent="fgyODpVmvb1E_QNug-0B-91">
          <mxGeometry width="30" height="32" as="geometry">
            <mxRectangle width="30" height="32" as="alternateBounds" />
          </mxGeometry>
        </mxCell>
        <mxCell id="fgyODpVmvb1E_QNug-0B-93" value="date" style="shape=partialRectangle;overflow=hidden;connectable=0;fillColor=none;top=0;left=0;bottom=0;right=0;align=left;spacingLeft=6;labelBackgroundColor=none;strokeColor=default;" vertex="1" parent="fgyODpVmvb1E_QNug-0B-91">
          <mxGeometry x="30" width="69.75" height="32" as="geometry">
            <mxRectangle width="69.75" height="32" as="alternateBounds" />
          </mxGeometry>
        </mxCell>
        <mxCell id="fgyODpVmvb1E_QNug-0B-94" value="datetime" style="shape=partialRectangle;overflow=hidden;connectable=0;fillColor=none;top=0;left=0;bottom=0;right=0;align=left;spacingLeft=6;labelBackgroundColor=none;" vertex="1" parent="fgyODpVmvb1E_QNug-0B-91">
          <mxGeometry x="99.75" width="80.25" height="32" as="geometry">
            <mxRectangle width="80.25" height="32" as="alternateBounds" />
          </mxGeometry>
        </mxCell>
        <mxCell id="fgyODpVmvb1E_QNug-0B-95" style="shape=partialRectangle;collapsible=0;dropTarget=0;pointerEvents=0;fillColor=none;points=[[0,0.5],[1,0.5]];portConstraint=eastwest;top=0;left=0;right=0;bottom=0;labelBackgroundColor=none;" vertex="1" parent="fgyODpVmvb1E_QNug-0B-78">
          <mxGeometry y="154" width="180" height="32" as="geometry" />
        </mxCell>
        <mxCell id="fgyODpVmvb1E_QNug-0B-96" value="" style="shape=partialRectangle;overflow=hidden;connectable=0;fillColor=none;top=0;left=0;bottom=0;right=0;labelBackgroundColor=none;" vertex="1" parent="fgyODpVmvb1E_QNug-0B-95">
          <mxGeometry width="30" height="32" as="geometry">
            <mxRectangle width="30" height="32" as="alternateBounds" />
          </mxGeometry>
        </mxCell>
        <mxCell id="fgyODpVmvb1E_QNug-0B-97" value="score" style="shape=partialRectangle;overflow=hidden;connectable=0;fillColor=none;top=0;left=0;bottom=0;right=0;align=left;spacingLeft=6;labelBackgroundColor=none;strokeColor=default;" vertex="1" parent="fgyODpVmvb1E_QNug-0B-95">
          <mxGeometry x="30" width="69.75" height="32" as="geometry">
            <mxRectangle width="69.75" height="32" as="alternateBounds" />
          </mxGeometry>
        </mxCell>
        <mxCell id="fgyODpVmvb1E_QNug-0B-98" value="char(7)" style="shape=partialRectangle;overflow=hidden;connectable=0;fillColor=none;top=0;left=0;bottom=0;right=0;align=left;spacingLeft=6;labelBackgroundColor=none;" vertex="1" parent="fgyODpVmvb1E_QNug-0B-95">
          <mxGeometry x="99.75" width="80.25" height="32" as="geometry">
            <mxRectangle width="80.25" height="32" as="alternateBounds" />
          </mxGeometry>
        </mxCell>
        <mxCell id="fgyODpVmvb1E_QNug-0B-154" style="shape=partialRectangle;collapsible=0;dropTarget=0;pointerEvents=0;fillColor=none;points=[[0,0.5],[1,0.5]];portConstraint=eastwest;top=0;left=0;right=0;bottom=0;labelBackgroundColor=none;" vertex="1" parent="fgyODpVmvb1E_QNug-0B-78">
          <mxGeometry y="186" width="180" height="32" as="geometry" />
        </mxCell>
        <mxCell id="fgyODpVmvb1E_QNug-0B-155" style="shape=partialRectangle;overflow=hidden;connectable=0;fillColor=none;top=0;left=0;bottom=0;right=0;labelBackgroundColor=none;" vertex="1" parent="fgyODpVmvb1E_QNug-0B-154">
          <mxGeometry width="30" height="32" as="geometry">
            <mxRectangle width="30" height="32" as="alternateBounds" />
          </mxGeometry>
        </mxCell>
        <mxCell id="fgyODpVmvb1E_QNug-0B-156" value="field    " style="shape=partialRectangle;overflow=hidden;connectable=0;fillColor=none;top=0;left=0;bottom=0;right=0;align=left;spacingLeft=6;labelBackgroundColor=none;strokeColor=default;" vertex="1" parent="fgyODpVmvb1E_QNug-0B-154">
          <mxGeometry x="30" width="69.75" height="32" as="geometry">
            <mxRectangle width="69.75" height="32" as="alternateBounds" />
          </mxGeometry>
        </mxCell>
        <mxCell id="fgyODpVmvb1E_QNug-0B-157" value="varchar(50)" style="shape=partialRectangle;overflow=hidden;connectable=0;fillColor=none;top=0;left=0;bottom=0;right=0;align=left;spacingLeft=6;labelBackgroundColor=none;" vertex="1" parent="fgyODpVmvb1E_QNug-0B-154">
          <mxGeometry x="99.75" width="80.25" height="32" as="geometry">
            <mxRectangle width="80.25" height="32" as="alternateBounds" />
          </mxGeometry>
        </mxCell>
        <mxCell id="fgyODpVmvb1E_QNug-0B-146" style="shape=partialRectangle;collapsible=0;dropTarget=0;pointerEvents=0;fillColor=none;points=[[0,0.5],[1,0.5]];portConstraint=eastwest;top=0;left=0;right=0;bottom=0;labelBackgroundColor=none;" vertex="1" parent="fgyODpVmvb1E_QNug-0B-78">
          <mxGeometry y="218" width="180" height="32" as="geometry" />
        </mxCell>
        <mxCell id="fgyODpVmvb1E_QNug-0B-147" style="shape=partialRectangle;overflow=hidden;connectable=0;fillColor=none;top=0;left=0;bottom=0;right=0;labelBackgroundColor=none;" vertex="1" parent="fgyODpVmvb1E_QNug-0B-146">
          <mxGeometry width="30" height="32" as="geometry">
            <mxRectangle width="30" height="32" as="alternateBounds" />
          </mxGeometry>
        </mxCell>
        <mxCell id="fgyODpVmvb1E_QNug-0B-148" value="duration        " style="shape=partialRectangle;overflow=hidden;connectable=0;fillColor=none;top=0;left=0;bottom=0;right=0;align=left;spacingLeft=6;labelBackgroundColor=none;strokeColor=default;" vertex="1" parent="fgyODpVmvb1E_QNug-0B-146">
          <mxGeometry x="30" width="69.75" height="32" as="geometry">
            <mxRectangle width="69.75" height="32" as="alternateBounds" />
          </mxGeometry>
        </mxCell>
        <mxCell id="fgyODpVmvb1E_QNug-0B-149" value="datetime" style="shape=partialRectangle;overflow=hidden;connectable=0;fillColor=none;top=0;left=0;bottom=0;right=0;align=left;spacingLeft=6;labelBackgroundColor=none;" vertex="1" parent="fgyODpVmvb1E_QNug-0B-146">
          <mxGeometry x="99.75" width="80.25" height="32" as="geometry">
            <mxRectangle width="80.25" height="32" as="alternateBounds" />
          </mxGeometry>
        </mxCell>
        <mxCell id="fgyODpVmvb1E_QNug-0B-99" style="shape=partialRectangle;collapsible=0;dropTarget=0;pointerEvents=0;fillColor=none;points=[[0,0.5],[1,0.5]];portConstraint=eastwest;top=0;left=0;right=0;bottom=0;labelBackgroundColor=none;" vertex="1" parent="fgyODpVmvb1E_QNug-0B-78">
          <mxGeometry y="250" width="180" height="32" as="geometry" />
        </mxCell>
        <mxCell id="fgyODpVmvb1E_QNug-0B-100" value="FK3" style="shape=partialRectangle;overflow=hidden;connectable=0;fillColor=none;top=0;left=0;bottom=0;right=0;labelBackgroundColor=none;" vertex="1" parent="fgyODpVmvb1E_QNug-0B-99">
          <mxGeometry width="30" height="32" as="geometry">
            <mxRectangle width="30" height="32" as="alternateBounds" />
          </mxGeometry>
        </mxCell>
        <mxCell id="fgyODpVmvb1E_QNug-0B-101" value="statistics" style="shape=partialRectangle;overflow=hidden;connectable=0;fillColor=none;top=0;left=0;bottom=0;right=0;align=left;spacingLeft=6;labelBackgroundColor=none;strokeColor=default;" vertex="1" parent="fgyODpVmvb1E_QNug-0B-99">
          <mxGeometry x="30" width="69.75" height="32" as="geometry">
            <mxRectangle width="69.75" height="32" as="alternateBounds" />
          </mxGeometry>
        </mxCell>
        <mxCell id="fgyODpVmvb1E_QNug-0B-102" value="id" style="shape=partialRectangle;overflow=hidden;connectable=0;fillColor=none;top=0;left=0;bottom=0;right=0;align=left;spacingLeft=6;labelBackgroundColor=none;" vertex="1" parent="fgyODpVmvb1E_QNug-0B-99">
          <mxGeometry x="99.75" width="80.25" height="32" as="geometry">
            <mxRectangle width="80.25" height="32" as="alternateBounds" />
          </mxGeometry>
        </mxCell>
        <mxCell id="fgyODpVmvb1E_QNug-0B-145" value="" style="group" vertex="1" connectable="0" parent="1">
          <mxGeometry x="613" y="378" width="180" height="344" as="geometry" />
        </mxCell>
        <mxCell id="fgyODpVmvb1E_QNug-0B-103" value="Statistics" style="shape=table;startSize=30;container=1;collapsible=1;childLayout=tableLayout;fixedRows=1;rowLines=0;fontStyle=1;align=center;resizeLast=1;labelBackgroundColor=none;swimlaneLine=1;" vertex="1" parent="fgyODpVmvb1E_QNug-0B-145">
          <mxGeometry width="180" height="314" as="geometry" />
        </mxCell>
        <mxCell id="fgyODpVmvb1E_QNug-0B-104" value="" style="shape=partialRectangle;collapsible=0;dropTarget=0;pointerEvents=0;fillColor=none;points=[[0,0.5],[1,0.5]];portConstraint=eastwest;top=0;left=0;right=0;bottom=1;labelBackgroundColor=none;" vertex="1" parent="fgyODpVmvb1E_QNug-0B-103">
          <mxGeometry y="30" width="180" height="30" as="geometry" />
        </mxCell>
        <mxCell id="fgyODpVmvb1E_QNug-0B-105" value="PK" style="shape=partialRectangle;overflow=hidden;connectable=0;fillColor=none;top=0;left=0;bottom=0;right=0;fontStyle=1;labelBackgroundColor=none;" vertex="1" parent="fgyODpVmvb1E_QNug-0B-104">
          <mxGeometry width="30" height="30" as="geometry">
            <mxRectangle width="30" height="30" as="alternateBounds" />
          </mxGeometry>
        </mxCell>
        <mxCell id="fgyODpVmvb1E_QNug-0B-106" value="stats_id" style="shape=partialRectangle;overflow=hidden;connectable=0;fillColor=none;top=0;left=0;bottom=0;right=0;align=left;spacingLeft=6;fontStyle=5;labelBackgroundColor=none;" vertex="1" parent="fgyODpVmvb1E_QNug-0B-104">
          <mxGeometry x="30" width="78.75" height="30" as="geometry">
            <mxRectangle width="78.75" height="30" as="alternateBounds" />
          </mxGeometry>
        </mxCell>
        <mxCell id="fgyODpVmvb1E_QNug-0B-107" value="int" style="shape=partialRectangle;overflow=hidden;connectable=0;fillColor=none;top=0;left=0;bottom=0;right=0;align=left;spacingLeft=6;fontStyle=5;labelBackgroundColor=none;" vertex="1" parent="fgyODpVmvb1E_QNug-0B-104">
          <mxGeometry x="108.75" width="71.25" height="30" as="geometry">
            <mxRectangle width="71.25" height="30" as="alternateBounds" />
          </mxGeometry>
        </mxCell>
        <mxCell id="fgyODpVmvb1E_QNug-0B-108" value="" style="shape=partialRectangle;collapsible=0;dropTarget=0;pointerEvents=0;fillColor=none;points=[[0,0.5],[1,0.5]];portConstraint=eastwest;top=0;left=0;right=0;bottom=0;labelBackgroundColor=none;" vertex="1" parent="fgyODpVmvb1E_QNug-0B-103">
          <mxGeometry y="60" width="180" height="30" as="geometry" />
        </mxCell>
        <mxCell id="fgyODpVmvb1E_QNug-0B-109" value="FK1" style="shape=partialRectangle;overflow=hidden;connectable=0;fillColor=none;top=0;left=0;bottom=0;right=0;labelBackgroundColor=none;labelBorderColor=none;perimeterSpacing=1;" vertex="1" parent="fgyODpVmvb1E_QNug-0B-108">
          <mxGeometry width="30" height="30" as="geometry">
            <mxRectangle width="30" height="30" as="alternateBounds" />
          </mxGeometry>
        </mxCell>
        <mxCell id="fgyODpVmvb1E_QNug-0B-110" value="match_id" style="shape=partialRectangle;overflow=hidden;connectable=0;fillColor=none;top=0;left=0;bottom=0;right=0;align=left;spacingLeft=6;labelBackgroundColor=none;labelBorderColor=none;perimeterSpacing=1;" vertex="1" parent="fgyODpVmvb1E_QNug-0B-108">
          <mxGeometry x="30" width="78.75" height="30" as="geometry">
            <mxRectangle width="78.75" height="30" as="alternateBounds" />
          </mxGeometry>
        </mxCell>
        <mxCell id="fgyODpVmvb1E_QNug-0B-111" value="int" style="shape=partialRectangle;overflow=hidden;connectable=0;fillColor=none;top=0;left=0;bottom=0;right=0;align=left;spacingLeft=6;labelBackgroundColor=none;labelBorderColor=none;perimeterSpacing=1;" vertex="1" parent="fgyODpVmvb1E_QNug-0B-108">
          <mxGeometry x="108.75" width="71.25" height="30" as="geometry">
            <mxRectangle width="71.25" height="30" as="alternateBounds" />
          </mxGeometry>
        </mxCell>
        <mxCell id="fgyODpVmvb1E_QNug-0B-112" style="shape=partialRectangle;collapsible=0;dropTarget=0;pointerEvents=0;fillColor=none;points=[[0,0.5],[1,0.5]];portConstraint=eastwest;top=0;left=0;right=0;bottom=0;labelBackgroundColor=none;" vertex="1" parent="fgyODpVmvb1E_QNug-0B-103">
          <mxGeometry y="90" width="180" height="32" as="geometry" />
        </mxCell>
        <mxCell id="fgyODpVmvb1E_QNug-0B-113" value="" style="shape=partialRectangle;overflow=hidden;connectable=0;fillColor=none;top=0;left=0;bottom=0;right=0;labelBackgroundColor=none;" vertex="1" parent="fgyODpVmvb1E_QNug-0B-112">
          <mxGeometry width="30" height="32" as="geometry">
            <mxRectangle width="30" height="32" as="alternateBounds" />
          </mxGeometry>
        </mxCell>
        <mxCell id="fgyODpVmvb1E_QNug-0B-114" value="passes" style="shape=partialRectangle;overflow=hidden;connectable=0;fillColor=none;top=0;left=0;bottom=0;right=0;align=left;spacingLeft=6;labelBackgroundColor=none;strokeColor=default;" vertex="1" parent="fgyODpVmvb1E_QNug-0B-112">
          <mxGeometry x="30" width="78.75" height="32" as="geometry">
            <mxRectangle width="78.75" height="32" as="alternateBounds" />
          </mxGeometry>
        </mxCell>
        <mxCell id="fgyODpVmvb1E_QNug-0B-115" value="int [2]" style="shape=partialRectangle;overflow=hidden;connectable=0;fillColor=none;top=0;left=0;bottom=0;right=0;align=left;spacingLeft=6;labelBackgroundColor=none;" vertex="1" parent="fgyODpVmvb1E_QNug-0B-112">
          <mxGeometry x="108.75" width="71.25" height="32" as="geometry">
            <mxRectangle width="71.25" height="32" as="alternateBounds" />
          </mxGeometry>
        </mxCell>
        <mxCell id="fgyODpVmvb1E_QNug-0B-116" style="shape=partialRectangle;collapsible=0;dropTarget=0;pointerEvents=0;fillColor=none;points=[[0,0.5],[1,0.5]];portConstraint=eastwest;top=0;left=0;right=0;bottom=0;labelBackgroundColor=none;" vertex="1" parent="fgyODpVmvb1E_QNug-0B-103">
          <mxGeometry y="122" width="180" height="32" as="geometry" />
        </mxCell>
        <mxCell id="fgyODpVmvb1E_QNug-0B-117" value="" style="shape=partialRectangle;overflow=hidden;connectable=0;fillColor=none;top=0;left=0;bottom=0;right=0;labelBackgroundColor=none;" vertex="1" parent="fgyODpVmvb1E_QNug-0B-116">
          <mxGeometry width="30" height="32" as="geometry">
            <mxRectangle width="30" height="32" as="alternateBounds" />
          </mxGeometry>
        </mxCell>
        <mxCell id="fgyODpVmvb1E_QNug-0B-118" value="red_card" style="shape=partialRectangle;overflow=hidden;connectable=0;fillColor=none;top=0;left=0;bottom=0;right=0;align=left;spacingLeft=6;labelBackgroundColor=none;strokeColor=default;" vertex="1" parent="fgyODpVmvb1E_QNug-0B-116">
          <mxGeometry x="30" width="78.75" height="32" as="geometry">
            <mxRectangle width="78.75" height="32" as="alternateBounds" />
          </mxGeometry>
        </mxCell>
        <mxCell id="fgyODpVmvb1E_QNug-0B-119" value="int [2]" style="shape=partialRectangle;overflow=hidden;connectable=0;fillColor=none;top=0;left=0;bottom=0;right=0;align=left;spacingLeft=6;labelBackgroundColor=none;" vertex="1" parent="fgyODpVmvb1E_QNug-0B-116">
          <mxGeometry x="108.75" width="71.25" height="32" as="geometry">
            <mxRectangle width="71.25" height="32" as="alternateBounds" />
          </mxGeometry>
        </mxCell>
        <mxCell id="fgyODpVmvb1E_QNug-0B-120" style="shape=partialRectangle;collapsible=0;dropTarget=0;pointerEvents=0;fillColor=none;points=[[0,0.5],[1,0.5]];portConstraint=eastwest;top=0;left=0;right=0;bottom=0;labelBackgroundColor=none;" vertex="1" parent="fgyODpVmvb1E_QNug-0B-103">
          <mxGeometry y="154" width="180" height="32" as="geometry" />
        </mxCell>
        <mxCell id="fgyODpVmvb1E_QNug-0B-121" value="" style="shape=partialRectangle;overflow=hidden;connectable=0;fillColor=none;top=0;left=0;bottom=0;right=0;labelBackgroundColor=none;" vertex="1" parent="fgyODpVmvb1E_QNug-0B-120">
          <mxGeometry width="30" height="32" as="geometry">
            <mxRectangle width="30" height="32" as="alternateBounds" />
          </mxGeometry>
        </mxCell>
        <mxCell id="fgyODpVmvb1E_QNug-0B-122" value="yellow_card" style="shape=partialRectangle;overflow=hidden;connectable=0;fillColor=none;top=0;left=0;bottom=0;right=0;align=left;spacingLeft=6;labelBackgroundColor=none;strokeColor=default;" vertex="1" parent="fgyODpVmvb1E_QNug-0B-120">
          <mxGeometry x="30" width="78.75" height="32" as="geometry">
            <mxRectangle width="78.75" height="32" as="alternateBounds" />
          </mxGeometry>
        </mxCell>
        <mxCell id="fgyODpVmvb1E_QNug-0B-123" value="int [2]" style="shape=partialRectangle;overflow=hidden;connectable=0;fillColor=none;top=0;left=0;bottom=0;right=0;align=left;spacingLeft=6;labelBackgroundColor=none;" vertex="1" parent="fgyODpVmvb1E_QNug-0B-120">
          <mxGeometry x="108.75" width="71.25" height="32" as="geometry">
            <mxRectangle width="71.25" height="32" as="alternateBounds" />
          </mxGeometry>
        </mxCell>
        <mxCell id="fgyODpVmvb1E_QNug-0B-124" style="shape=partialRectangle;collapsible=0;dropTarget=0;pointerEvents=0;fillColor=none;points=[[0,0.5],[1,0.5]];portConstraint=eastwest;top=0;left=0;right=0;bottom=0;labelBackgroundColor=none;" vertex="1" parent="fgyODpVmvb1E_QNug-0B-103">
          <mxGeometry y="186" width="180" height="32" as="geometry" />
        </mxCell>
        <mxCell id="fgyODpVmvb1E_QNug-0B-125" value="" style="shape=partialRectangle;overflow=hidden;connectable=0;fillColor=none;top=0;left=0;bottom=0;right=0;labelBackgroundColor=none;" vertex="1" parent="fgyODpVmvb1E_QNug-0B-124">
          <mxGeometry width="30" height="32" as="geometry">
            <mxRectangle width="30" height="32" as="alternateBounds" />
          </mxGeometry>
        </mxCell>
        <mxCell id="fgyODpVmvb1E_QNug-0B-126" value="possetion" style="shape=partialRectangle;overflow=hidden;connectable=0;fillColor=none;top=0;left=0;bottom=0;right=0;align=left;spacingLeft=6;labelBackgroundColor=none;strokeColor=default;" vertex="1" parent="fgyODpVmvb1E_QNug-0B-124">
          <mxGeometry x="30" width="78.75" height="32" as="geometry">
            <mxRectangle width="78.75" height="32" as="alternateBounds" />
          </mxGeometry>
        </mxCell>
        <mxCell id="fgyODpVmvb1E_QNug-0B-127" value="int [2]" style="shape=partialRectangle;overflow=hidden;connectable=0;fillColor=none;top=0;left=0;bottom=0;right=0;align=left;spacingLeft=6;labelBackgroundColor=none;" vertex="1" parent="fgyODpVmvb1E_QNug-0B-124">
          <mxGeometry x="108.75" width="71.25" height="32" as="geometry">
            <mxRectangle width="71.25" height="32" as="alternateBounds" />
          </mxGeometry>
        </mxCell>
        <mxCell id="fgyODpVmvb1E_QNug-0B-128" style="shape=partialRectangle;collapsible=0;dropTarget=0;pointerEvents=0;fillColor=none;points=[[0,0.5],[1,0.5]];portConstraint=eastwest;top=0;left=0;right=0;bottom=0;labelBackgroundColor=none;" vertex="1" parent="fgyODpVmvb1E_QNug-0B-103">
          <mxGeometry y="218" width="180" height="32" as="geometry" />
        </mxCell>
        <mxCell id="fgyODpVmvb1E_QNug-0B-129" style="shape=partialRectangle;overflow=hidden;connectable=0;fillColor=none;top=0;left=0;bottom=0;right=0;labelBackgroundColor=none;" vertex="1" parent="fgyODpVmvb1E_QNug-0B-128">
          <mxGeometry width="30" height="32" as="geometry">
            <mxRectangle width="30" height="32" as="alternateBounds" />
          </mxGeometry>
        </mxCell>
        <mxCell id="fgyODpVmvb1E_QNug-0B-130" value="shoots" style="shape=partialRectangle;overflow=hidden;connectable=0;fillColor=none;top=0;left=0;bottom=0;right=0;align=left;spacingLeft=6;labelBackgroundColor=none;strokeColor=default;" vertex="1" parent="fgyODpVmvb1E_QNug-0B-128">
          <mxGeometry x="30" width="78.75" height="32" as="geometry">
            <mxRectangle width="78.75" height="32" as="alternateBounds" />
          </mxGeometry>
        </mxCell>
        <mxCell id="fgyODpVmvb1E_QNug-0B-131" value="int [2]" style="shape=partialRectangle;overflow=hidden;connectable=0;fillColor=none;top=0;left=0;bottom=0;right=0;align=left;spacingLeft=6;labelBackgroundColor=none;" vertex="1" parent="fgyODpVmvb1E_QNug-0B-128">
          <mxGeometry x="108.75" width="71.25" height="32" as="geometry">
            <mxRectangle width="71.25" height="32" as="alternateBounds" />
          </mxGeometry>
        </mxCell>
        <mxCell id="fgyODpVmvb1E_QNug-0B-132" style="shape=partialRectangle;collapsible=0;dropTarget=0;pointerEvents=0;fillColor=none;points=[[0,0.5],[1,0.5]];portConstraint=eastwest;top=0;left=0;right=0;bottom=0;labelBackgroundColor=none;" vertex="1" parent="fgyODpVmvb1E_QNug-0B-103">
          <mxGeometry y="250" width="180" height="32" as="geometry" />
        </mxCell>
        <mxCell id="fgyODpVmvb1E_QNug-0B-133" style="shape=partialRectangle;overflow=hidden;connectable=0;fillColor=none;top=0;left=0;bottom=0;right=0;labelBackgroundColor=none;" vertex="1" parent="fgyODpVmvb1E_QNug-0B-132">
          <mxGeometry width="30" height="32" as="geometry">
            <mxRectangle width="30" height="32" as="alternateBounds" />
          </mxGeometry>
        </mxCell>
        <mxCell id="fgyODpVmvb1E_QNug-0B-134" value="on_target" style="shape=partialRectangle;overflow=hidden;connectable=0;fillColor=none;top=0;left=0;bottom=0;right=0;align=left;spacingLeft=6;labelBackgroundColor=none;strokeColor=default;" vertex="1" parent="fgyODpVmvb1E_QNug-0B-132">
          <mxGeometry x="30" width="78.75" height="32" as="geometry">
            <mxRectangle width="78.75" height="32" as="alternateBounds" />
          </mxGeometry>
        </mxCell>
        <mxCell id="fgyODpVmvb1E_QNug-0B-135" value="int [2]" style="shape=partialRectangle;overflow=hidden;connectable=0;fillColor=none;top=0;left=0;bottom=0;right=0;align=left;spacingLeft=6;labelBackgroundColor=none;" vertex="1" parent="fgyODpVmvb1E_QNug-0B-132">
          <mxGeometry x="108.75" width="71.25" height="32" as="geometry">
            <mxRectangle width="71.25" height="32" as="alternateBounds" />
          </mxGeometry>
        </mxCell>
        <mxCell id="fgyODpVmvb1E_QNug-0B-136" style="shape=partialRectangle;collapsible=0;dropTarget=0;pointerEvents=0;fillColor=none;points=[[0,0.5],[1,0.5]];portConstraint=eastwest;top=0;left=0;right=0;bottom=0;labelBackgroundColor=none;" vertex="1" parent="fgyODpVmvb1E_QNug-0B-103">
          <mxGeometry y="282" width="180" height="32" as="geometry" />
        </mxCell>
        <mxCell id="fgyODpVmvb1E_QNug-0B-137" style="shape=partialRectangle;overflow=hidden;connectable=0;fillColor=none;top=0;left=0;bottom=0;right=0;labelBackgroundColor=none;" vertex="1" parent="fgyODpVmvb1E_QNug-0B-136">
          <mxGeometry width="30" height="32" as="geometry">
            <mxRectangle width="30" height="32" as="alternateBounds" />
          </mxGeometry>
        </mxCell>
        <mxCell id="fgyODpVmvb1E_QNug-0B-138" value="corner    " style="shape=partialRectangle;overflow=hidden;connectable=0;fillColor=none;top=0;left=0;bottom=0;right=0;align=left;spacingLeft=6;labelBackgroundColor=none;strokeColor=default;" vertex="1" parent="fgyODpVmvb1E_QNug-0B-136">
          <mxGeometry x="30" width="78.75" height="32" as="geometry">
            <mxRectangle width="78.75" height="32" as="alternateBounds" />
          </mxGeometry>
        </mxCell>
        <mxCell id="fgyODpVmvb1E_QNug-0B-139" value="int [2]" style="shape=partialRectangle;overflow=hidden;connectable=0;fillColor=none;top=0;left=0;bottom=0;right=0;align=left;spacingLeft=6;labelBackgroundColor=none;" vertex="1" parent="fgyODpVmvb1E_QNug-0B-136">
          <mxGeometry x="108.75" width="71.25" height="32" as="geometry">
            <mxRectangle width="71.25" height="32" as="alternateBounds" />
          </mxGeometry>
        </mxCell>
        <mxCell id="fgyODpVmvb1E_QNug-0B-144" value="int[0] --&amp;gt; home&amp;nbsp;&lt;br&gt;int[1] --&amp;gt; away" style="text;html=1;align=center;verticalAlign=middle;whiteSpace=wrap;rounded=0;" vertex="1" parent="fgyODpVmvb1E_QNug-0B-145">
          <mxGeometry x="19" y="314" width="152" height="30" as="geometry" />
        </mxCell>
        <mxCell id="fgyODpVmvb1E_QNug-0B-165" value="" style="edgeStyle=orthogonalEdgeStyle;fontSize=12;html=1;endArrow=ERzeroToMany;startArrow=ERzeroToOne;rounded=0;entryX=0;entryY=0.5;entryDx=0;entryDy=0;exitX=1;exitY=0.5;exitDx=0;exitDy=0;strokeWidth=2;endSize=8;startSize=8;jumpSize=8;" edge="1" parent="1" source="fgyODpVmvb1E_QNug-0B-27" target="fgyODpVmvb1E_QNug-0B-32">
          <mxGeometry width="100" height="100" relative="1" as="geometry">
            <mxPoint x="221" y="290" as="sourcePoint" />
            <mxPoint x="321" y="190" as="targetPoint" />
          </mxGeometry>
        </mxCell>
        <mxCell id="fgyODpVmvb1E_QNug-0B-168" value="&lt;font style=&quot;font-size: 14px;&quot;&gt;Favorites&lt;/font&gt;" style="edgeLabel;html=1;align=center;verticalAlign=middle;resizable=0;points=[];" vertex="1" connectable="0" parent="fgyODpVmvb1E_QNug-0B-165">
          <mxGeometry x="0.0774" y="-1" relative="1" as="geometry">
            <mxPoint x="1" y="-23" as="offset" />
          </mxGeometry>
        </mxCell>
        <mxCell id="fgyODpVmvb1E_QNug-0B-166" value="" style="edgeStyle=orthogonalEdgeStyle;fontSize=12;html=1;endArrow=ERoneToMany;startArrow=ERmandOne;rounded=0;exitX=0;exitY=0.5;exitDx=0;exitDy=0;entryX=1;entryY=0.5;entryDx=0;entryDy=0;strokeWidth=2;endSize=8;startSize=8;jumpSize=8;" edge="1" parent="1" source="fgyODpVmvb1E_QNug-0B-44" target="fgyODpVmvb1E_QNug-0B-58">
          <mxGeometry width="100" height="100" relative="1" as="geometry">
            <mxPoint x="374" y="494" as="sourcePoint" />
            <mxPoint x="474" y="394" as="targetPoint" />
          </mxGeometry>
        </mxCell>
        <mxCell id="fgyODpVmvb1E_QNug-0B-167" value="&lt;font style=&quot;font-size: 14px;&quot;&gt;Has&lt;/font&gt;" style="edgeLabel;html=1;align=center;verticalAlign=middle;resizable=0;points=[];" vertex="1" connectable="0" parent="fgyODpVmvb1E_QNug-0B-166">
          <mxGeometry x="-0.0804" y="1" relative="1" as="geometry">
            <mxPoint as="offset" />
          </mxGeometry>
        </mxCell>
        <mxCell id="fgyODpVmvb1E_QNug-0B-172" value="" style="edgeStyle=orthogonalEdgeStyle;fontSize=12;html=1;endArrow=ERoneToMany;rounded=0;exitX=1;exitY=0.5;exitDx=0;exitDy=0;entryX=0;entryY=0.5;entryDx=0;entryDy=0;" edge="1" parent="1" source="fgyODpVmvb1E_QNug-0B-32" target="fgyODpVmvb1E_QNug-0B-83">
          <mxGeometry width="100" height="100" relative="1" as="geometry">
            <mxPoint x="612" y="497" as="sourcePoint" />
            <mxPoint x="712" y="397" as="targetPoint" />
          </mxGeometry>
        </mxCell>
        <mxCell id="fgyODpVmvb1E_QNug-0B-175" value="" style="edgeStyle=orthogonalEdgeStyle;fontSize=12;html=1;endArrow=ERoneToMany;rounded=0;entryX=0;entryY=0.5;entryDx=0;entryDy=0;exitX=1;exitY=0.5;exitDx=0;exitDy=0;" edge="1" parent="1" source="fgyODpVmvb1E_QNug-0B-32" target="fgyODpVmvb1E_QNug-0B-87">
          <mxGeometry width="100" height="100" relative="1" as="geometry">
            <mxPoint x="593" y="436" as="sourcePoint" />
            <mxPoint x="660" y="446" as="targetPoint" />
          </mxGeometry>
        </mxCell>
        <mxCell id="fgyODpVmvb1E_QNug-0B-179" value="Standngs" style="shape=table;startSize=30;container=1;collapsible=1;childLayout=tableLayout;fixedRows=1;rowLines=0;fontStyle=1;align=center;resizeLast=1;labelBackgroundColor=none;swimlaneLine=1;" vertex="1" parent="1">
          <mxGeometry x="26" y="680.5" width="197.82352941176453" height="154.294117647059" as="geometry" />
        </mxCell>
        <mxCell id="fgyODpVmvb1E_QNug-0B-180" value="" style="shape=partialRectangle;collapsible=0;dropTarget=0;pointerEvents=0;fillColor=none;points=[[0,0.5],[1,0.5]];portConstraint=eastwest;top=0;left=0;right=0;bottom=1;labelBackgroundColor=none;" vertex="1" parent="fgyODpVmvb1E_QNug-0B-179">
          <mxGeometry y="30" width="197.82352941176453" height="30" as="geometry" />
        </mxCell>
        <mxCell id="fgyODpVmvb1E_QNug-0B-181" value="PK" style="shape=partialRectangle;overflow=hidden;connectable=0;fillColor=none;top=0;left=0;bottom=0;right=0;fontStyle=1;labelBackgroundColor=none;" vertex="1" parent="fgyODpVmvb1E_QNug-0B-180">
          <mxGeometry width="30" height="30" as="geometry">
            <mxRectangle width="30" height="30" as="alternateBounds" />
          </mxGeometry>
        </mxCell>
        <mxCell id="fgyODpVmvb1E_QNug-0B-182" value="standing_id" style="shape=partialRectangle;overflow=hidden;connectable=0;fillColor=none;top=0;left=0;bottom=0;right=0;align=left;spacingLeft=6;fontStyle=5;labelBackgroundColor=none;" vertex="1" parent="fgyODpVmvb1E_QNug-0B-180">
          <mxGeometry x="30" width="85.47058823529409" height="30" as="geometry">
            <mxRectangle width="85.47058823529409" height="30" as="alternateBounds" />
          </mxGeometry>
        </mxCell>
        <mxCell id="fgyODpVmvb1E_QNug-0B-183" value="int" style="shape=partialRectangle;overflow=hidden;connectable=0;fillColor=none;top=0;left=0;bottom=0;right=0;align=left;spacingLeft=6;fontStyle=5;labelBackgroundColor=none;" vertex="1" parent="fgyODpVmvb1E_QNug-0B-180">
          <mxGeometry x="115.47058823529409" width="82.35294117647044" height="30" as="geometry">
            <mxRectangle width="82.35294117647044" height="30" as="alternateBounds" />
          </mxGeometry>
        </mxCell>
        <mxCell id="fgyODpVmvb1E_QNug-0B-184" value="" style="shape=partialRectangle;collapsible=0;dropTarget=0;pointerEvents=0;fillColor=none;points=[[0,0.5],[1,0.5]];portConstraint=eastwest;top=0;left=0;right=0;bottom=0;labelBackgroundColor=none;" vertex="1" parent="fgyODpVmvb1E_QNug-0B-179">
          <mxGeometry y="60" width="197.82352941176453" height="30" as="geometry" />
        </mxCell>
        <mxCell id="fgyODpVmvb1E_QNug-0B-185" value="FK1" style="shape=partialRectangle;overflow=hidden;connectable=0;fillColor=none;top=0;left=0;bottom=0;right=0;labelBackgroundColor=none;labelBorderColor=none;perimeterSpacing=1;" vertex="1" parent="fgyODpVmvb1E_QNug-0B-184">
          <mxGeometry width="30" height="30" as="geometry">
            <mxRectangle width="30" height="30" as="alternateBounds" />
          </mxGeometry>
        </mxCell>
        <mxCell id="fgyODpVmvb1E_QNug-0B-186" value="clubs" style="shape=partialRectangle;overflow=hidden;connectable=0;fillColor=none;top=0;left=0;bottom=0;right=0;align=left;spacingLeft=6;labelBackgroundColor=none;labelBorderColor=none;perimeterSpacing=1;" vertex="1" parent="fgyODpVmvb1E_QNug-0B-184">
          <mxGeometry x="30" width="85.47058823529409" height="30" as="geometry">
            <mxRectangle width="85.47058823529409" height="30" as="alternateBounds" />
          </mxGeometry>
        </mxCell>
        <mxCell id="fgyODpVmvb1E_QNug-0B-187" value="int []" style="shape=partialRectangle;overflow=hidden;connectable=0;fillColor=none;top=0;left=0;bottom=0;right=0;align=left;spacingLeft=6;labelBackgroundColor=none;labelBorderColor=none;perimeterSpacing=1;" vertex="1" parent="fgyODpVmvb1E_QNug-0B-184">
          <mxGeometry x="115.47058823529409" width="82.35294117647044" height="30" as="geometry">
            <mxRectangle width="82.35294117647044" height="30" as="alternateBounds" />
          </mxGeometry>
        </mxCell>
        <mxCell id="fgyODpVmvb1E_QNug-0B-188" style="shape=partialRectangle;collapsible=0;dropTarget=0;pointerEvents=0;fillColor=none;points=[[0,0.5],[1,0.5]];portConstraint=eastwest;top=0;left=0;right=0;bottom=0;labelBackgroundColor=none;" vertex="1" parent="fgyODpVmvb1E_QNug-0B-179">
          <mxGeometry y="90" width="197.82352941176453" height="32" as="geometry" />
        </mxCell>
        <mxCell id="fgyODpVmvb1E_QNug-0B-189" value="" style="shape=partialRectangle;overflow=hidden;connectable=0;fillColor=none;top=0;left=0;bottom=0;right=0;labelBackgroundColor=none;" vertex="1" parent="fgyODpVmvb1E_QNug-0B-188">
          <mxGeometry width="30" height="32" as="geometry">
            <mxRectangle width="30" height="32" as="alternateBounds" />
          </mxGeometry>
        </mxCell>
        <mxCell id="fgyODpVmvb1E_QNug-0B-190" value="league_name" style="shape=partialRectangle;overflow=hidden;connectable=0;fillColor=none;top=0;left=0;bottom=0;right=0;align=left;spacingLeft=6;labelBackgroundColor=none;strokeColor=default;" vertex="1" parent="fgyODpVmvb1E_QNug-0B-188">
          <mxGeometry x="30" width="85.47058823529409" height="32" as="geometry">
            <mxRectangle width="85.47058823529409" height="32" as="alternateBounds" />
          </mxGeometry>
        </mxCell>
        <mxCell id="fgyODpVmvb1E_QNug-0B-191" value="varchar(50)" style="shape=partialRectangle;overflow=hidden;connectable=0;fillColor=none;top=0;left=0;bottom=0;right=0;align=left;spacingLeft=6;labelBackgroundColor=none;" vertex="1" parent="fgyODpVmvb1E_QNug-0B-188">
          <mxGeometry x="115.47058823529409" width="82.35294117647044" height="32" as="geometry">
            <mxRectangle width="82.35294117647044" height="32" as="alternateBounds" />
          </mxGeometry>
        </mxCell>
        <mxCell id="fgyODpVmvb1E_QNug-0B-192" style="shape=partialRectangle;collapsible=0;dropTarget=0;pointerEvents=0;fillColor=none;points=[[0,0.5],[1,0.5]];portConstraint=eastwest;top=0;left=0;right=0;bottom=0;labelBackgroundColor=none;" vertex="1" parent="fgyODpVmvb1E_QNug-0B-179">
          <mxGeometry y="122" width="197.82352941176453" height="32" as="geometry" />
        </mxCell>
        <mxCell id="fgyODpVmvb1E_QNug-0B-193" value="" style="shape=partialRectangle;overflow=hidden;connectable=0;fillColor=none;top=0;left=0;bottom=0;right=0;labelBackgroundColor=none;" vertex="1" parent="fgyODpVmvb1E_QNug-0B-192">
          <mxGeometry width="30" height="32" as="geometry">
            <mxRectangle width="30" height="32" as="alternateBounds" />
          </mxGeometry>
        </mxCell>
        <mxCell id="fgyODpVmvb1E_QNug-0B-194" value="season" style="shape=partialRectangle;overflow=hidden;connectable=0;fillColor=none;top=0;left=0;bottom=0;right=0;align=left;spacingLeft=6;labelBackgroundColor=none;strokeColor=default;" vertex="1" parent="fgyODpVmvb1E_QNug-0B-192">
          <mxGeometry x="30" width="85.47058823529409" height="32" as="geometry">
            <mxRectangle width="85.47058823529409" height="32" as="alternateBounds" />
          </mxGeometry>
        </mxCell>
        <mxCell id="fgyODpVmvb1E_QNug-0B-195" value="datetime" style="shape=partialRectangle;overflow=hidden;connectable=0;fillColor=none;top=0;left=0;bottom=0;right=0;align=left;spacingLeft=6;labelBackgroundColor=none;" vertex="1" parent="fgyODpVmvb1E_QNug-0B-192">
          <mxGeometry x="115.47058823529409" width="82.35294117647044" height="32" as="geometry">
            <mxRectangle width="82.35294117647044" height="32" as="alternateBounds" />
          </mxGeometry>
        </mxCell>
        <mxCell id="fgyODpVmvb1E_QNug-0B-219" value="League Stats" style="shape=table;startSize=30;container=1;collapsible=1;childLayout=tableLayout;fixedRows=1;rowLines=0;fontStyle=1;align=center;resizeLast=1;labelBackgroundColor=none;swimlaneLine=1;" vertex="1" parent="1">
          <mxGeometry x="348" y="619" width="197.82352941176453" height="277.294117647059" as="geometry" />
        </mxCell>
        <mxCell id="fgyODpVmvb1E_QNug-0B-220" value="" style="shape=partialRectangle;collapsible=0;dropTarget=0;pointerEvents=0;fillColor=none;points=[[0,0.5],[1,0.5]];portConstraint=eastwest;top=0;left=0;right=0;bottom=1;labelBackgroundColor=none;" vertex="1" parent="fgyODpVmvb1E_QNug-0B-219">
          <mxGeometry y="30" width="197.82352941176453" height="30" as="geometry" />
        </mxCell>
        <mxCell id="fgyODpVmvb1E_QNug-0B-221" value="PK" style="shape=partialRectangle;overflow=hidden;connectable=0;fillColor=none;top=0;left=0;bottom=0;right=0;fontStyle=1;labelBackgroundColor=none;" vertex="1" parent="fgyODpVmvb1E_QNug-0B-220">
          <mxGeometry width="30" height="30" as="geometry">
            <mxRectangle width="30" height="30" as="alternateBounds" />
          </mxGeometry>
        </mxCell>
        <mxCell id="fgyODpVmvb1E_QNug-0B-222" value="lstats_id" style="shape=partialRectangle;overflow=hidden;connectable=0;fillColor=none;top=0;left=0;bottom=0;right=0;align=left;spacingLeft=6;fontStyle=5;labelBackgroundColor=none;" vertex="1" parent="fgyODpVmvb1E_QNug-0B-220">
          <mxGeometry x="30" width="85.47058823529409" height="30" as="geometry">
            <mxRectangle width="85.47058823529409" height="30" as="alternateBounds" />
          </mxGeometry>
        </mxCell>
        <mxCell id="fgyODpVmvb1E_QNug-0B-223" value="int" style="shape=partialRectangle;overflow=hidden;connectable=0;fillColor=none;top=0;left=0;bottom=0;right=0;align=left;spacingLeft=6;fontStyle=5;labelBackgroundColor=none;" vertex="1" parent="fgyODpVmvb1E_QNug-0B-220">
          <mxGeometry x="115.47058823529409" width="82.35294117647044" height="30" as="geometry">
            <mxRectangle width="82.35294117647044" height="30" as="alternateBounds" />
          </mxGeometry>
        </mxCell>
        <mxCell id="fgyODpVmvb1E_QNug-0B-224" value="" style="shape=partialRectangle;collapsible=0;dropTarget=0;pointerEvents=0;fillColor=none;points=[[0,0.5],[1,0.5]];portConstraint=eastwest;top=0;left=0;right=0;bottom=0;labelBackgroundColor=none;" vertex="1" parent="fgyODpVmvb1E_QNug-0B-219">
          <mxGeometry y="60" width="197.82352941176453" height="30" as="geometry" />
        </mxCell>
        <mxCell id="fgyODpVmvb1E_QNug-0B-225" value="FK1" style="shape=partialRectangle;overflow=hidden;connectable=0;fillColor=none;top=0;left=0;bottom=0;right=0;labelBackgroundColor=none;labelBorderColor=none;perimeterSpacing=1;" vertex="1" parent="fgyODpVmvb1E_QNug-0B-224">
          <mxGeometry width="30" height="30" as="geometry">
            <mxRectangle width="30" height="30" as="alternateBounds" />
          </mxGeometry>
        </mxCell>
        <mxCell id="fgyODpVmvb1E_QNug-0B-226" value="club_id" style="shape=partialRectangle;overflow=hidden;connectable=0;fillColor=none;top=0;left=0;bottom=0;right=0;align=left;spacingLeft=6;labelBackgroundColor=none;labelBorderColor=none;perimeterSpacing=1;" vertex="1" parent="fgyODpVmvb1E_QNug-0B-224">
          <mxGeometry x="30" width="85.47058823529409" height="30" as="geometry">
            <mxRectangle width="85.47058823529409" height="30" as="alternateBounds" />
          </mxGeometry>
        </mxCell>
        <mxCell id="fgyODpVmvb1E_QNug-0B-227" value="int" style="shape=partialRectangle;overflow=hidden;connectable=0;fillColor=none;top=0;left=0;bottom=0;right=0;align=left;spacingLeft=6;labelBackgroundColor=none;labelBorderColor=none;perimeterSpacing=1;" vertex="1" parent="fgyODpVmvb1E_QNug-0B-224">
          <mxGeometry x="115.47058823529409" width="82.35294117647044" height="30" as="geometry">
            <mxRectangle width="82.35294117647044" height="30" as="alternateBounds" />
          </mxGeometry>
        </mxCell>
        <mxCell id="fgyODpVmvb1E_QNug-0B-228" style="shape=partialRectangle;collapsible=0;dropTarget=0;pointerEvents=0;fillColor=none;points=[[0,0.5],[1,0.5]];portConstraint=eastwest;top=0;left=0;right=0;bottom=0;labelBackgroundColor=none;" vertex="1" parent="fgyODpVmvb1E_QNug-0B-219">
          <mxGeometry y="90" width="197.82352941176453" height="32" as="geometry" />
        </mxCell>
        <mxCell id="fgyODpVmvb1E_QNug-0B-229" value="FK2" style="shape=partialRectangle;overflow=hidden;connectable=0;fillColor=none;top=0;left=0;bottom=0;right=0;labelBackgroundColor=none;" vertex="1" parent="fgyODpVmvb1E_QNug-0B-228">
          <mxGeometry width="30" height="32" as="geometry">
            <mxRectangle width="30" height="32" as="alternateBounds" />
          </mxGeometry>
        </mxCell>
        <mxCell id="fgyODpVmvb1E_QNug-0B-230" value="standing_id" style="shape=partialRectangle;overflow=hidden;connectable=0;fillColor=none;top=0;left=0;bottom=0;right=0;align=left;spacingLeft=6;labelBackgroundColor=none;strokeColor=default;" vertex="1" parent="fgyODpVmvb1E_QNug-0B-228">
          <mxGeometry x="30" width="85.47058823529409" height="32" as="geometry">
            <mxRectangle width="85.47058823529409" height="32" as="alternateBounds" />
          </mxGeometry>
        </mxCell>
        <mxCell id="fgyODpVmvb1E_QNug-0B-231" value="int" style="shape=partialRectangle;overflow=hidden;connectable=0;fillColor=none;top=0;left=0;bottom=0;right=0;align=left;spacingLeft=6;labelBackgroundColor=none;" vertex="1" parent="fgyODpVmvb1E_QNug-0B-228">
          <mxGeometry x="115.47058823529409" width="82.35294117647044" height="32" as="geometry">
            <mxRectangle width="82.35294117647044" height="32" as="alternateBounds" />
          </mxGeometry>
        </mxCell>
        <mxCell id="fgyODpVmvb1E_QNug-0B-232" style="shape=partialRectangle;collapsible=0;dropTarget=0;pointerEvents=0;fillColor=none;points=[[0,0.5],[1,0.5]];portConstraint=eastwest;top=0;left=0;right=0;bottom=0;labelBackgroundColor=none;" vertex="1" parent="fgyODpVmvb1E_QNug-0B-219">
          <mxGeometry y="122" width="197.82352941176453" height="32" as="geometry" />
        </mxCell>
        <mxCell id="fgyODpVmvb1E_QNug-0B-233" value="" style="shape=partialRectangle;overflow=hidden;connectable=0;fillColor=none;top=0;left=0;bottom=0;right=0;labelBackgroundColor=none;" vertex="1" parent="fgyODpVmvb1E_QNug-0B-232">
          <mxGeometry width="30" height="32" as="geometry">
            <mxRectangle width="30" height="32" as="alternateBounds" />
          </mxGeometry>
        </mxCell>
        <mxCell id="fgyODpVmvb1E_QNug-0B-234" value="wins" style="shape=partialRectangle;overflow=hidden;connectable=0;fillColor=none;top=0;left=0;bottom=0;right=0;align=left;spacingLeft=6;labelBackgroundColor=none;strokeColor=default;" vertex="1" parent="fgyODpVmvb1E_QNug-0B-232">
          <mxGeometry x="30" width="85.47058823529409" height="32" as="geometry">
            <mxRectangle width="85.47058823529409" height="32" as="alternateBounds" />
          </mxGeometry>
        </mxCell>
        <mxCell id="fgyODpVmvb1E_QNug-0B-235" value="int" style="shape=partialRectangle;overflow=hidden;connectable=0;fillColor=none;top=0;left=0;bottom=0;right=0;align=left;spacingLeft=6;labelBackgroundColor=none;" vertex="1" parent="fgyODpVmvb1E_QNug-0B-232">
          <mxGeometry x="115.47058823529409" width="82.35294117647044" height="32" as="geometry">
            <mxRectangle width="82.35294117647044" height="32" as="alternateBounds" />
          </mxGeometry>
        </mxCell>
        <mxCell id="fgyODpVmvb1E_QNug-0B-236" style="shape=partialRectangle;collapsible=0;dropTarget=0;pointerEvents=0;fillColor=none;points=[[0,0.5],[1,0.5]];portConstraint=eastwest;top=0;left=0;right=0;bottom=0;labelBackgroundColor=none;" vertex="1" parent="fgyODpVmvb1E_QNug-0B-219">
          <mxGeometry y="154" width="197.82352941176453" height="27" as="geometry" />
        </mxCell>
        <mxCell id="fgyODpVmvb1E_QNug-0B-237" value="" style="shape=partialRectangle;overflow=hidden;connectable=0;fillColor=none;top=0;left=0;bottom=0;right=0;labelBackgroundColor=none;" vertex="1" parent="fgyODpVmvb1E_QNug-0B-236">
          <mxGeometry width="30" height="27" as="geometry">
            <mxRectangle width="30" height="27" as="alternateBounds" />
          </mxGeometry>
        </mxCell>
        <mxCell id="fgyODpVmvb1E_QNug-0B-238" value="losses" style="shape=partialRectangle;overflow=hidden;connectable=0;fillColor=none;top=0;left=0;bottom=0;right=0;align=left;spacingLeft=6;labelBackgroundColor=none;strokeColor=default;" vertex="1" parent="fgyODpVmvb1E_QNug-0B-236">
          <mxGeometry x="30" width="85.47058823529409" height="27" as="geometry">
            <mxRectangle width="85.47058823529409" height="27" as="alternateBounds" />
          </mxGeometry>
        </mxCell>
        <mxCell id="fgyODpVmvb1E_QNug-0B-239" value="int" style="shape=partialRectangle;overflow=hidden;connectable=0;fillColor=none;top=0;left=0;bottom=0;right=0;align=left;spacingLeft=6;labelBackgroundColor=none;" vertex="1" parent="fgyODpVmvb1E_QNug-0B-236">
          <mxGeometry x="115.47058823529409" width="82.35294117647044" height="27" as="geometry">
            <mxRectangle width="82.35294117647044" height="27" as="alternateBounds" />
          </mxGeometry>
        </mxCell>
        <mxCell id="fgyODpVmvb1E_QNug-0B-240" style="shape=partialRectangle;collapsible=0;dropTarget=0;pointerEvents=0;fillColor=none;points=[[0,0.5],[1,0.5]];portConstraint=eastwest;top=0;left=0;right=0;bottom=0;labelBackgroundColor=none;" vertex="1" parent="fgyODpVmvb1E_QNug-0B-219">
          <mxGeometry y="181" width="197.82352941176453" height="32" as="geometry" />
        </mxCell>
        <mxCell id="fgyODpVmvb1E_QNug-0B-241" style="shape=partialRectangle;overflow=hidden;connectable=0;fillColor=none;top=0;left=0;bottom=0;right=0;labelBackgroundColor=none;" vertex="1" parent="fgyODpVmvb1E_QNug-0B-240">
          <mxGeometry width="30" height="32" as="geometry">
            <mxRectangle width="30" height="32" as="alternateBounds" />
          </mxGeometry>
        </mxCell>
        <mxCell id="fgyODpVmvb1E_QNug-0B-242" value="draws" style="shape=partialRectangle;overflow=hidden;connectable=0;fillColor=none;top=0;left=0;bottom=0;right=0;align=left;spacingLeft=6;labelBackgroundColor=none;strokeColor=default;" vertex="1" parent="fgyODpVmvb1E_QNug-0B-240">
          <mxGeometry x="30" width="85.47058823529409" height="32" as="geometry">
            <mxRectangle width="85.47058823529409" height="32" as="alternateBounds" />
          </mxGeometry>
        </mxCell>
        <mxCell id="fgyODpVmvb1E_QNug-0B-243" value="int" style="shape=partialRectangle;overflow=hidden;connectable=0;fillColor=none;top=0;left=0;bottom=0;right=0;align=left;spacingLeft=6;labelBackgroundColor=none;" vertex="1" parent="fgyODpVmvb1E_QNug-0B-240">
          <mxGeometry x="115.47058823529409" width="82.35294117647044" height="32" as="geometry">
            <mxRectangle width="82.35294117647044" height="32" as="alternateBounds" />
          </mxGeometry>
        </mxCell>
        <mxCell id="fgyODpVmvb1E_QNug-0B-244" style="shape=partialRectangle;collapsible=0;dropTarget=0;pointerEvents=0;fillColor=none;points=[[0,0.5],[1,0.5]];portConstraint=eastwest;top=0;left=0;right=0;bottom=0;labelBackgroundColor=none;" vertex="1" parent="fgyODpVmvb1E_QNug-0B-219">
          <mxGeometry y="213" width="197.82352941176453" height="32" as="geometry" />
        </mxCell>
        <mxCell id="fgyODpVmvb1E_QNug-0B-245" style="shape=partialRectangle;overflow=hidden;connectable=0;fillColor=none;top=0;left=0;bottom=0;right=0;labelBackgroundColor=none;" vertex="1" parent="fgyODpVmvb1E_QNug-0B-244">
          <mxGeometry width="30" height="32" as="geometry">
            <mxRectangle width="30" height="32" as="alternateBounds" />
          </mxGeometry>
        </mxCell>
        <mxCell id="fgyODpVmvb1E_QNug-0B-246" value="points" style="shape=partialRectangle;overflow=hidden;connectable=0;fillColor=none;top=0;left=0;bottom=0;right=0;align=left;spacingLeft=6;labelBackgroundColor=none;strokeColor=default;" vertex="1" parent="fgyODpVmvb1E_QNug-0B-244">
          <mxGeometry x="30" width="85.47058823529409" height="32" as="geometry">
            <mxRectangle width="85.47058823529409" height="32" as="alternateBounds" />
          </mxGeometry>
        </mxCell>
        <mxCell id="fgyODpVmvb1E_QNug-0B-247" value="int" style="shape=partialRectangle;overflow=hidden;connectable=0;fillColor=none;top=0;left=0;bottom=0;right=0;align=left;spacingLeft=6;labelBackgroundColor=none;" vertex="1" parent="fgyODpVmvb1E_QNug-0B-244">
          <mxGeometry x="115.47058823529409" width="82.35294117647044" height="32" as="geometry">
            <mxRectangle width="82.35294117647044" height="32" as="alternateBounds" />
          </mxGeometry>
        </mxCell>
        <mxCell id="fgyODpVmvb1E_QNug-0B-248" style="shape=partialRectangle;collapsible=0;dropTarget=0;pointerEvents=0;fillColor=none;points=[[0,0.5],[1,0.5]];portConstraint=eastwest;top=0;left=0;right=0;bottom=0;labelBackgroundColor=none;" vertex="1" parent="fgyODpVmvb1E_QNug-0B-219">
          <mxGeometry y="245" width="197.82352941176453" height="32" as="geometry" />
        </mxCell>
        <mxCell id="fgyODpVmvb1E_QNug-0B-249" value="" style="shape=partialRectangle;overflow=hidden;connectable=0;fillColor=none;top=0;left=0;bottom=0;right=0;labelBackgroundColor=none;" vertex="1" parent="fgyODpVmvb1E_QNug-0B-248">
          <mxGeometry width="30" height="32" as="geometry">
            <mxRectangle width="30" height="32" as="alternateBounds" />
          </mxGeometry>
        </mxCell>
        <mxCell id="fgyODpVmvb1E_QNug-0B-250" value="rank" style="shape=partialRectangle;overflow=hidden;connectable=0;fillColor=none;top=0;left=0;bottom=0;right=0;align=left;spacingLeft=6;labelBackgroundColor=none;strokeColor=default;" vertex="1" parent="fgyODpVmvb1E_QNug-0B-248">
          <mxGeometry x="30" width="85.47058823529409" height="32" as="geometry">
            <mxRectangle width="85.47058823529409" height="32" as="alternateBounds" />
          </mxGeometry>
        </mxCell>
        <mxCell id="fgyODpVmvb1E_QNug-0B-251" value="id" style="shape=partialRectangle;overflow=hidden;connectable=0;fillColor=none;top=0;left=0;bottom=0;right=0;align=left;spacingLeft=6;labelBackgroundColor=none;" vertex="1" parent="fgyODpVmvb1E_QNug-0B-248">
          <mxGeometry x="115.47058823529409" width="82.35294117647044" height="32" as="geometry">
            <mxRectangle width="82.35294117647044" height="32" as="alternateBounds" />
          </mxGeometry>
        </mxCell>
        <mxCell id="fgyODpVmvb1E_QNug-0B-253" value="" style="edgeStyle=elbowEdgeStyle;fontSize=12;html=1;endArrow=ERoneToMany;startArrow=ERoneToMany;rounded=0;exitX=1;exitY=0.5;exitDx=0;exitDy=0;" edge="1" parent="1" source="fgyODpVmvb1E_QNug-0B-184">
          <mxGeometry width="100" height="100" relative="1" as="geometry">
            <mxPoint x="360" y="650" as="sourcePoint" />
            <mxPoint x="348" y="415" as="targetPoint" />
            <Array as="points">
              <mxPoint x="257" y="569" />
            </Array>
          </mxGeometry>
        </mxCell>
        <mxCell id="fgyODpVmvb1E_QNug-0B-254" value="" style="edgeStyle=entityRelationEdgeStyle;fontSize=12;html=1;endArrow=ERmandOne;startArrow=ERmandOne;rounded=0;exitX=1;exitY=0.5;exitDx=0;exitDy=0;entryX=0;entryY=0.5;entryDx=0;entryDy=0;" edge="1" parent="1" source="fgyODpVmvb1E_QNug-0B-180" target="fgyODpVmvb1E_QNug-0B-228">
          <mxGeometry width="100" height="100" relative="1" as="geometry">
            <mxPoint x="345" y="520" as="sourcePoint" />
            <mxPoint x="445" y="420" as="targetPoint" />
          </mxGeometry>
        </mxCell>
        <mxCell id="fgyODpVmvb1E_QNug-0B-255" value="" style="edgeStyle=entityRelationEdgeStyle;fontSize=12;html=1;endArrow=ERmandOne;startArrow=ERmandOne;rounded=0;exitX=1;exitY=0.5;exitDx=0;exitDy=0;entryX=1;entryY=0.5;entryDx=0;entryDy=0;" edge="1" parent="1" source="fgyODpVmvb1E_QNug-0B-108" target="fgyODpVmvb1E_QNug-0B-99">
          <mxGeometry width="100" height="100" relative="1" as="geometry">
            <mxPoint x="499" y="454" as="sourcePoint" />
            <mxPoint x="599" y="354" as="targetPoint" />
          </mxGeometry>
        </mxCell>
        <mxCell id="fgyODpVmvb1E_QNug-0B-257" value="" style="edgeStyle=entityRelationEdgeStyle;fontSize=12;html=1;endArrow=ERmandOne;startArrow=ERmandOne;rounded=0;exitX=1;exitY=0.5;exitDx=0;exitDy=0;" edge="1" parent="1" source="fgyODpVmvb1E_QNug-0B-220" target="fgyODpVmvb1E_QNug-0B-212">
          <mxGeometry width="100" height="100" relative="1" as="geometry">
            <mxPoint x="587" y="524" as="sourcePoint" />
            <mxPoint x="687" y="424" as="targetPoint" />
          </mxGeometry>
        </mxCell>
      </root>
    </mxGraphModel>
  </diagram>
</mxfile>
